<?xml version="1.0" encoding="utf-8" standalone="no"?>
<!DOCTYPE svg PUBLIC "-//W3C//DTD SVG 1.1//EN"
  "http://www.w3.org/Graphics/SVG/1.1/DTD/svg11.dtd">
<svg xmlns:xlink="http://www.w3.org/1999/xlink" width="712.46125pt" height="567.654688pt" viewBox="0 0 712.46125 567.654688" xmlns="http://www.w3.org/2000/svg" version="1.1">
 <metadata>
  <rdf:RDF xmlns:dc="http://purl.org/dc/elements/1.1/" xmlns:cc="http://creativecommons.org/ns#" xmlns:rdf="http://www.w3.org/1999/02/22-rdf-syntax-ns#">
   <cc:Work>
    <dc:type rdf:resource="http://purl.org/dc/dcmitype/StillImage"/>
    <dc:date>2024-12-23T23:11:29.396715</dc:date>
    <dc:format>image/svg+xml</dc:format>
    <dc:creator>
     <cc:Agent>
      <dc:title>Matplotlib v3.9.1, https://matplotlib.org/</dc:title>
     </cc:Agent>
    </dc:creator>
   </cc:Work>
  </rdf:RDF>
 </metadata>
 <defs>
  <style type="text/css">*{stroke-linejoin: round; stroke-linecap: butt}</style>
 </defs>
 <g id="figure_1">
  <g id="patch_1">
   <path d="M 0 567.654688 
L 712.46125 567.654688 
L 712.46125 0 
L 0 0 
z
" style="fill: #ffffff"/>
  </g>
  <g id="axes_1">
   <g id="patch_2">
    <path d="M 43.78125 385.878125 
L 705.26125 385.878125 
L 705.26125 22.318125 
L 43.78125 22.318125 
z
" style="fill: #ffffff"/>
   </g>
   <g id="patch_3">
    <path d="M 73.848523 385.878125 
L 82.318177 385.878125 
L 82.318177 334.582181 
L 73.848523 334.582181 
z
" clip-path="url(#p61db7f356f)" style="fill: #00072d"/>
   </g>
   <g id="patch_4">
    <path d="M 107.72714 385.878125 
L 116.196794 385.878125 
L 116.196794 322.924012 
L 107.72714 322.924012 
z
" clip-path="url(#p61db7f356f)" style="fill: #00072d"/>
   </g>
   <g id="patch_5">
    <path d="M 141.605757 385.878125 
L 150.075411 385.878125 
L 150.075411 261.584108 
L 141.605757 261.584108 
z
" clip-path="url(#p61db7f356f)" style="fill: #00072d"/>
   </g>
   <g id="patch_6">
    <path d="M 175.484374 385.878125 
L 183.954028 385.878125 
L 183.954028 259.9699 
L 175.484374 259.9699 
z
" clip-path="url(#p61db7f356f)" style="fill: #00072d"/>
   </g>
   <g id="patch_7">
    <path d="M 209.362991 385.878125 
L 217.832646 385.878125 
L 217.832646 252.238693 
L 209.362991 252.238693 
z
" clip-path="url(#p61db7f356f)" style="fill: #00072d"/>
   </g>
   <g id="patch_8">
    <path d="M 243.241609 385.878125 
L 251.711263 385.878125 
L 251.711263 247.379077 
L 243.241609 247.379077 
z
" clip-path="url(#p61db7f356f)" style="fill: #00072d"/>
   </g>
   <g id="patch_9">
    <path d="M 277.120226 385.878125 
L 285.58988 385.878125 
L 285.58988 246.047356 
L 277.120226 246.047356 
z
" clip-path="url(#p61db7f356f)" style="fill: #00072d"/>
   </g>
   <g id="patch_10">
    <path d="M 310.998843 385.878125 
L 319.468497 385.878125 
L 319.468497 241.291207 
L 310.998843 241.291207 
z
" clip-path="url(#p61db7f356f)" style="fill: #00072d"/>
   </g>
   <g id="patch_11">
    <path d="M 344.87746 385.878125 
L 353.347114 385.878125 
L 353.347114 233.402109 
L 344.87746 233.402109 
z
" clip-path="url(#p61db7f356f)" style="fill: #00072d"/>
   </g>
   <g id="patch_12">
    <path d="M 378.756077 385.878125 
L 387.225731 385.878125 
L 387.225731 230.663675 
L 378.756077 230.663675 
z
" clip-path="url(#p61db7f356f)" style="fill: #00072d"/>
   </g>
   <g id="patch_13">
    <path d="M 412.634694 385.878125 
L 421.104349 385.878125 
L 421.104349 229.508233 
L 412.634694 229.508233 
z
" clip-path="url(#p61db7f356f)" style="fill: #00072d"/>
   </g>
   <g id="patch_14">
    <path d="M 446.513311 385.878125 
L 454.982966 385.878125 
L 454.982966 228.912538 
L 446.513311 228.912538 
z
" clip-path="url(#p61db7f356f)" style="fill: #00072d"/>
   </g>
   <g id="patch_15">
    <path d="M 480.391929 385.878125 
L 488.861583 385.878125 
L 488.861583 223.996121 
L 480.391929 223.996121 
z
" clip-path="url(#p61db7f356f)" style="fill: #00072d"/>
   </g>
   <g id="patch_16">
    <path d="M 514.270546 385.878125 
L 522.7402 385.878125 
L 522.7402 220.069406 
L 514.270546 220.069406 
z
" clip-path="url(#p61db7f356f)" style="fill: #00072d"/>
   </g>
   <g id="patch_17">
    <path d="M 548.149163 385.878125 
L 556.618817 385.878125 
L 556.618817 219.679268 
L 548.149163 219.679268 
z
" clip-path="url(#p61db7f356f)" style="fill: #00072d"/>
   </g>
   <g id="patch_18">
    <path d="M 582.02778 385.878125 
L 590.497434 385.878125 
L 590.497434 217.433337 
L 582.02778 217.433337 
z
" clip-path="url(#p61db7f356f)" style="fill: #00072d"/>
   </g>
   <g id="patch_19">
    <path d="M 615.906397 385.878125 
L 624.376052 385.878125 
L 624.376052 215.417759 
L 615.906397 215.417759 
z
" clip-path="url(#p61db7f356f)" style="fill: #00072d"/>
   </g>
   <g id="patch_20">
    <path d="M 649.785014 385.878125 
L 658.254669 385.878125 
L 658.254669 203.136326 
L 649.785014 203.136326 
z
" clip-path="url(#p61db7f356f)" style="fill: #00072d"/>
   </g>
   <g id="patch_21">
    <path d="M 82.318177 385.878125 
L 90.787831 385.878125 
L 90.787831 352.902161 
L 82.318177 352.902161 
z
" clip-path="url(#p61db7f356f)" style="fill: #21897e"/>
   </g>
   <g id="patch_22">
    <path d="M 116.196794 385.878125 
L 124.666448 385.878125 
L 124.666448 328.170188 
L 116.196794 328.170188 
z
" clip-path="url(#p61db7f356f)" style="fill: #21897e"/>
   </g>
   <g id="patch_23">
    <path d="M 150.075411 385.878125 
L 158.545066 385.878125 
L 158.545066 270.462252 
L 150.075411 270.462252 
z
" clip-path="url(#p61db7f356f)" style="fill: #21897e"/>
   </g>
   <g id="patch_24">
    <path d="M 183.954028 385.878125 
L 192.423683 385.878125 
L 192.423683 165.538731 
L 183.954028 165.538731 
z
" clip-path="url(#p61db7f356f)" style="fill: #21897e"/>
   </g>
   <g id="patch_25">
    <path d="M 217.832646 385.878125 
L 226.3023 385.878125 
L 226.3023 220.281438 
L 217.832646 220.281438 
z
" clip-path="url(#p61db7f356f)" style="fill: #21897e"/>
   </g>
   <g id="patch_26">
    <path d="M 251.711263 385.878125 
L 260.180917 385.878125 
L 260.180917 39.630506 
L 251.711263 39.630506 
z
" clip-path="url(#p61db7f356f)" style="fill: #21897e"/>
   </g>
   <g id="patch_27">
    <path d="M 285.58988 385.878125 
L 294.059534 385.878125 
L 294.059534 39.630506 
L 285.58988 39.630506 
z
" clip-path="url(#p61db7f356f)" style="fill: #21897e"/>
   </g>
   <g id="patch_28">
    <path d="M 319.468497 385.878125 
L 327.938151 385.878125 
L 327.938151 99.847483 
L 319.468497 99.847483 
z
" clip-path="url(#p61db7f356f)" style="fill: #21897e"/>
   </g>
   <g id="patch_29">
    <path d="M 353.347114 385.878125 
L 361.816769 385.878125 
L 361.816769 66.264938 
L 353.347114 66.264938 
z
" clip-path="url(#p61db7f356f)" style="fill: #21897e"/>
   </g>
   <g id="patch_30">
    <path d="M 387.225731 385.878125 
L 395.695386 385.878125 
L 395.695386 135.8104 
L 387.225731 135.8104 
z
" clip-path="url(#p61db7f356f)" style="fill: #21897e"/>
   </g>
   <g id="patch_31">
    <path d="M 421.104349 385.878125 
L 429.574003 385.878125 
L 429.574003 69.738995 
L 421.104349 69.738995 
z
" clip-path="url(#p61db7f356f)" style="fill: #21897e"/>
   </g>
   <g id="patch_32">
    <path d="M 454.982966 385.878125 
L 463.45262 385.878125 
L 463.45262 129.955972 
L 454.982966 129.955972 
z
" clip-path="url(#p61db7f356f)" style="fill: #21897e"/>
   </g>
   <g id="patch_33">
    <path d="M 488.861583 385.878125 
L 497.331237 385.878125 
L 497.331237 114.901727 
L 488.861583 114.901727 
z
" clip-path="url(#p61db7f356f)" style="fill: #21897e"/>
   </g>
   <g id="patch_34">
    <path d="M 522.7402 385.878125 
L 531.209854 385.878125 
L 531.209854 58.866485 
L 522.7402 58.866485 
z
" clip-path="url(#p61db7f356f)" style="fill: #21897e"/>
   </g>
   <g id="patch_35">
    <path d="M 556.618817 385.878125 
L 565.088472 385.878125 
L 565.088472 89.094452 
L 556.618817 89.094452 
z
" clip-path="url(#p61db7f356f)" style="fill: #21897e"/>
   </g>
   <g id="patch_36">
    <path d="M 590.497434 385.878125 
L 598.967089 385.878125 
L 598.967089 114.901727 
L 590.497434 114.901727 
z
" clip-path="url(#p61db7f356f)" style="fill: #21897e"/>
   </g>
   <g id="patch_37">
    <path d="M 624.376052 385.878125 
L 632.845706 385.878125 
L 632.845706 59.998013 
L 624.376052 59.998013 
z
" clip-path="url(#p61db7f356f)" style="fill: #21897e"/>
   </g>
   <g id="patch_38">
    <path d="M 658.254669 385.878125 
L 666.724323 385.878125 
L 666.724323 86.84609 
L 658.254669 86.84609 
z
" clip-path="url(#p61db7f356f)" style="fill: #21897e"/>
   </g>
   <g id="patch_39">
    <path d="M 90.787831 385.878125 
L 99.257486 385.878125 
L 99.257486 270.462252 
L 90.787831 270.462252 
z
" clip-path="url(#p61db7f356f)" style="fill: #02b98d"/>
   </g>
   <g id="patch_40">
    <path d="M 124.666448 385.878125 
L 133.136103 385.878125 
L 133.136103 316.628601 
L 124.666448 316.628601 
z
" clip-path="url(#p61db7f356f)" style="fill: #02b98d"/>
   </g>
   <g id="patch_41">
    <path d="M 158.545066 385.878125 
L 167.01472 385.878125 
L 167.01472 251.226273 
L 158.545066 251.226273 
z
" clip-path="url(#p61db7f356f)" style="fill: #02b98d"/>
   </g>
   <g id="patch_42">
    <path d="M 192.423683 385.878125 
L 200.893337 385.878125 
L 200.893337 297.742367 
L 192.423683 297.742367 
z
" clip-path="url(#p61db7f356f)" style="fill: #02b98d"/>
   </g>
   <g id="patch_43">
    <path d="M 226.3023 385.878125 
L 234.771954 385.878125 
L 234.771954 273.856836 
L 226.3023 273.856836 
z
" clip-path="url(#p61db7f356f)" style="fill: #02b98d"/>
   </g>
   <g id="patch_44">
    <path d="M 260.180917 385.878125 
L 268.650571 385.878125 
L 268.650571 299.31622 
L 260.180917 299.31622 
z
" clip-path="url(#p61db7f356f)" style="fill: #02b98d"/>
   </g>
   <g id="patch_45">
    <path d="M 294.059534 385.878125 
L 302.529189 385.878125 
L 302.529189 298.273306 
L 294.059534 298.273306 
z
" clip-path="url(#p61db7f356f)" style="fill: #02b98d"/>
   </g>
   <g id="patch_46">
    <path d="M 327.938151 385.878125 
L 336.407806 385.878125 
L 336.407806 289.132467 
L 327.938151 289.132467 
z
" clip-path="url(#p61db7f356f)" style="fill: #02b98d"/>
   </g>
   <g id="patch_47">
    <path d="M 361.816769 385.878125 
L 370.286423 385.878125 
L 370.286423 285.758332 
L 361.816769 285.758332 
z
" clip-path="url(#p61db7f356f)" style="fill: #02b98d"/>
   </g>
   <g id="patch_48">
    <path d="M 395.695386 385.878125 
L 404.16504 385.878125 
L 404.16504 273.347649 
L 395.695386 273.347649 
z
" clip-path="url(#p61db7f356f)" style="fill: #02b98d"/>
   </g>
   <g id="patch_49">
    <path d="M 429.574003 385.878125 
L 438.043657 385.878125 
L 438.043657 282.003839 
L 429.574003 282.003839 
z
" clip-path="url(#p61db7f356f)" style="fill: #02b98d"/>
   </g>
   <g id="patch_50">
    <path d="M 463.45262 385.878125 
L 471.922274 385.878125 
L 471.922274 272.681788 
L 463.45262 272.681788 
z
" clip-path="url(#p61db7f356f)" style="fill: #02b98d"/>
   </g>
   <g id="patch_51">
    <path d="M 497.331237 385.878125 
L 505.800891 385.878125 
L 505.800891 270.462252 
L 497.331237 270.462252 
z
" clip-path="url(#p61db7f356f)" style="fill: #02b98d"/>
   </g>
   <g id="patch_52">
    <path d="M 531.209854 385.878125 
L 539.679509 385.878125 
L 539.679509 274.817568 
L 531.209854 274.817568 
z
" clip-path="url(#p61db7f356f)" style="fill: #02b98d"/>
   </g>
   <g id="patch_53">
    <path d="M 565.088472 385.878125 
L 573.558126 385.878125 
L 573.558126 270.462252 
L 565.088472 270.462252 
z
" clip-path="url(#p61db7f356f)" style="fill: #02b98d"/>
   </g>
   <g id="patch_54">
    <path d="M 598.967089 385.878125 
L 607.436743 385.878125 
L 607.436743 263.673083 
L 598.967089 263.673083 
z
" clip-path="url(#p61db7f356f)" style="fill: #02b98d"/>
   </g>
   <g id="patch_55">
    <path d="M 632.845706 385.878125 
L 641.31536 385.878125 
L 641.31536 270.462252 
L 632.845706 270.462252 
z
" clip-path="url(#p61db7f356f)" style="fill: #02b98d"/>
   </g>
   <g id="patch_56">
    <path d="M 666.724323 385.878125 
L 675.193977 385.878125 
L 675.193977 254.30403 
L 666.724323 254.30403 
z
" clip-path="url(#p61db7f356f)" style="fill: #02b98d"/>
   </g>
   <g id="matplotlib.axis_1">
    <g id="xtick_1">
     <g id="line2d_1">
      <defs>
       <path id="m636a2c0795" d="M 0 0 
L 0 3.5 
" style="stroke: #000000; stroke-width: 0.8"/>
      </defs>
      <g>
       <use xlink:href="#m636a2c0795" x="82.318177" y="385.878125" style="stroke: #000000; stroke-width: 0.8"/>
      </g>
     </g>
     <g id="text_1">
      <!-- 10-Shot -->
      <g transform="translate(79.478646 462.575) rotate(-90) scale(0.1 -0.1)">
       <defs>
        <path id="DejaVuSans-31" d="M 794 531 
L 1825 531 
L 1825 4091 
L 703 3866 
L 703 4441 
L 1819 4666 
L 2450 4666 
L 2450 531 
L 3481 531 
L 3481 0 
L 794 0 
L 794 531 
z
" transform="scale(0.015625)"/>
        <path id="DejaVuSans-30" d="M 2034 4250 
Q 1547 4250 1301 3770 
Q 1056 3291 1056 2328 
Q 1056 1369 1301 889 
Q 1547 409 2034 409 
Q 2525 409 2770 889 
Q 3016 1369 3016 2328 
Q 3016 3291 2770 3770 
Q 2525 4250 2034 4250 
z
M 2034 4750 
Q 2819 4750 3233 4129 
Q 3647 3509 3647 2328 
Q 3647 1150 3233 529 
Q 2819 -91 2034 -91 
Q 1250 -91 836 529 
Q 422 1150 422 2328 
Q 422 3509 836 4129 
Q 1250 4750 2034 4750 
z
" transform="scale(0.015625)"/>
        <path id="DejaVuSans-2d" d="M 313 2009 
L 1997 2009 
L 1997 1497 
L 313 1497 
L 313 2009 
z
" transform="scale(0.015625)"/>
        <path id="DejaVuSans-53" d="M 3425 4513 
L 3425 3897 
Q 3066 4069 2747 4153 
Q 2428 4238 2131 4238 
Q 1616 4238 1336 4038 
Q 1056 3838 1056 3469 
Q 1056 3159 1242 3001 
Q 1428 2844 1947 2747 
L 2328 2669 
Q 3034 2534 3370 2195 
Q 3706 1856 3706 1288 
Q 3706 609 3251 259 
Q 2797 -91 1919 -91 
Q 1588 -91 1214 -16 
Q 841 59 441 206 
L 441 856 
Q 825 641 1194 531 
Q 1563 422 1919 422 
Q 2459 422 2753 634 
Q 3047 847 3047 1241 
Q 3047 1584 2836 1778 
Q 2625 1972 2144 2069 
L 1759 2144 
Q 1053 2284 737 2584 
Q 422 2884 422 3419 
Q 422 4038 858 4394 
Q 1294 4750 2059 4750 
Q 2388 4750 2728 4690 
Q 3069 4631 3425 4513 
z
" transform="scale(0.015625)"/>
        <path id="DejaVuSans-68" d="M 3513 2113 
L 3513 0 
L 2938 0 
L 2938 2094 
Q 2938 2591 2744 2837 
Q 2550 3084 2163 3084 
Q 1697 3084 1428 2787 
Q 1159 2491 1159 1978 
L 1159 0 
L 581 0 
L 581 4863 
L 1159 4863 
L 1159 2956 
Q 1366 3272 1645 3428 
Q 1925 3584 2291 3584 
Q 2894 3584 3203 3211 
Q 3513 2838 3513 2113 
z
" transform="scale(0.015625)"/>
        <path id="DejaVuSans-6f" d="M 1959 3097 
Q 1497 3097 1228 2736 
Q 959 2375 959 1747 
Q 959 1119 1226 758 
Q 1494 397 1959 397 
Q 2419 397 2687 759 
Q 2956 1122 2956 1747 
Q 2956 2369 2687 2733 
Q 2419 3097 1959 3097 
z
M 1959 3584 
Q 2709 3584 3137 3096 
Q 3566 2609 3566 1747 
Q 3566 888 3137 398 
Q 2709 -91 1959 -91 
Q 1206 -91 779 398 
Q 353 888 353 1747 
Q 353 2609 779 3096 
Q 1206 3584 1959 3584 
z
" transform="scale(0.015625)"/>
        <path id="DejaVuSans-74" d="M 1172 4494 
L 1172 3500 
L 2356 3500 
L 2356 3053 
L 1172 3053 
L 1172 1153 
Q 1172 725 1289 603 
Q 1406 481 1766 481 
L 2356 481 
L 2356 0 
L 1766 0 
Q 1100 0 847 248 
Q 594 497 594 1153 
L 594 3053 
L 172 3053 
L 172 3500 
L 594 3500 
L 594 4494 
L 1172 4494 
z
" transform="scale(0.015625)"/>
       </defs>
       <use xlink:href="#DejaVuSans-31"/>
       <use xlink:href="#DejaVuSans-30" x="63.623047"/>
       <use xlink:href="#DejaVuSans-2d" x="127.246094"/>
       <use xlink:href="#DejaVuSans-53" x="163.330078"/>
       <use xlink:href="#DejaVuSans-68" x="226.806641"/>
       <use xlink:href="#DejaVuSans-6f" x="290.185547"/>
       <use xlink:href="#DejaVuSans-74" x="351.367188"/>
      </g>
      <!-- + 1-Shot AutoDiCoT -->
      <g transform="translate(90.676458 493.214063) rotate(-90) scale(0.1 -0.1)">
       <defs>
        <path id="DejaVuSans-2b" d="M 2944 4013 
L 2944 2272 
L 4684 2272 
L 4684 1741 
L 2944 1741 
L 2944 0 
L 2419 0 
L 2419 1741 
L 678 1741 
L 678 2272 
L 2419 2272 
L 2419 4013 
L 2944 4013 
z
" transform="scale(0.015625)"/>
        <path id="DejaVuSans-20" transform="scale(0.015625)"/>
        <path id="DejaVuSans-41" d="M 2188 4044 
L 1331 1722 
L 3047 1722 
L 2188 4044 
z
M 1831 4666 
L 2547 4666 
L 4325 0 
L 3669 0 
L 3244 1197 
L 1141 1197 
L 716 0 
L 50 0 
L 1831 4666 
z
" transform="scale(0.015625)"/>
        <path id="DejaVuSans-75" d="M 544 1381 
L 544 3500 
L 1119 3500 
L 1119 1403 
Q 1119 906 1312 657 
Q 1506 409 1894 409 
Q 2359 409 2629 706 
Q 2900 1003 2900 1516 
L 2900 3500 
L 3475 3500 
L 3475 0 
L 2900 0 
L 2900 538 
Q 2691 219 2414 64 
Q 2138 -91 1772 -91 
Q 1169 -91 856 284 
Q 544 659 544 1381 
z
M 1991 3584 
L 1991 3584 
z
" transform="scale(0.015625)"/>
        <path id="DejaVuSans-44" d="M 1259 4147 
L 1259 519 
L 2022 519 
Q 2988 519 3436 956 
Q 3884 1394 3884 2338 
Q 3884 3275 3436 3711 
Q 2988 4147 2022 4147 
L 1259 4147 
z
M 628 4666 
L 1925 4666 
Q 3281 4666 3915 4102 
Q 4550 3538 4550 2338 
Q 4550 1131 3912 565 
Q 3275 0 1925 0 
L 628 0 
L 628 4666 
z
" transform="scale(0.015625)"/>
        <path id="DejaVuSans-69" d="M 603 3500 
L 1178 3500 
L 1178 0 
L 603 0 
L 603 3500 
z
M 603 4863 
L 1178 4863 
L 1178 4134 
L 603 4134 
L 603 4863 
z
" transform="scale(0.015625)"/>
        <path id="DejaVuSans-43" d="M 4122 4306 
L 4122 3641 
Q 3803 3938 3442 4084 
Q 3081 4231 2675 4231 
Q 1875 4231 1450 3742 
Q 1025 3253 1025 2328 
Q 1025 1406 1450 917 
Q 1875 428 2675 428 
Q 3081 428 3442 575 
Q 3803 722 4122 1019 
L 4122 359 
Q 3791 134 3420 21 
Q 3050 -91 2638 -91 
Q 1578 -91 968 557 
Q 359 1206 359 2328 
Q 359 3453 968 4101 
Q 1578 4750 2638 4750 
Q 3056 4750 3426 4639 
Q 3797 4528 4122 4306 
z
" transform="scale(0.015625)"/>
        <path id="DejaVuSans-54" d="M -19 4666 
L 3928 4666 
L 3928 4134 
L 2272 4134 
L 2272 0 
L 1638 0 
L 1638 4134 
L -19 4134 
L -19 4666 
z
" transform="scale(0.015625)"/>
       </defs>
       <use xlink:href="#DejaVuSans-2b"/>
       <use xlink:href="#DejaVuSans-20" x="83.789062"/>
       <use xlink:href="#DejaVuSans-31" x="115.576172"/>
       <use xlink:href="#DejaVuSans-2d" x="179.199219"/>
       <use xlink:href="#DejaVuSans-53" x="215.283203"/>
       <use xlink:href="#DejaVuSans-68" x="278.759766"/>
       <use xlink:href="#DejaVuSans-6f" x="342.138672"/>
       <use xlink:href="#DejaVuSans-74" x="403.320312"/>
       <use xlink:href="#DejaVuSans-20" x="442.529297"/>
       <use xlink:href="#DejaVuSans-41" x="474.316406"/>
       <use xlink:href="#DejaVuSans-75" x="542.724609"/>
       <use xlink:href="#DejaVuSans-74" x="606.103516"/>
       <use xlink:href="#DejaVuSans-6f" x="645.3125"/>
       <use xlink:href="#DejaVuSans-44" x="706.494141"/>
       <use xlink:href="#DejaVuSans-69" x="783.496094"/>
       <use xlink:href="#DejaVuSans-43" x="811.279297"/>
       <use xlink:href="#DejaVuSans-6f" x="881.103516"/>
       <use xlink:href="#DejaVuSans-54" x="942.285156"/>
      </g>
     </g>
    </g>
    <g id="xtick_2">
     <g id="line2d_2">
      <g>
       <use xlink:href="#m636a2c0795" x="116.196794" y="385.878125" style="stroke: #000000; stroke-width: 0.8"/>
      </g>
     </g>
     <g id="text_2">
      <!-- 1-Shot AutoDiCoT -->
      <g transform="translate(113.357263 481.65625) rotate(-90) scale(0.1 -0.1)">
       <use xlink:href="#DejaVuSans-31"/>
       <use xlink:href="#DejaVuSans-2d" x="63.623047"/>
       <use xlink:href="#DejaVuSans-53" x="99.707031"/>
       <use xlink:href="#DejaVuSans-68" x="163.183594"/>
       <use xlink:href="#DejaVuSans-6f" x="226.5625"/>
       <use xlink:href="#DejaVuSans-74" x="287.744141"/>
       <use xlink:href="#DejaVuSans-20" x="326.953125"/>
       <use xlink:href="#DejaVuSans-41" x="358.740234"/>
       <use xlink:href="#DejaVuSans-75" x="427.148438"/>
       <use xlink:href="#DejaVuSans-74" x="490.527344"/>
       <use xlink:href="#DejaVuSans-6f" x="529.736328"/>
       <use xlink:href="#DejaVuSans-44" x="590.917969"/>
       <use xlink:href="#DejaVuSans-69" x="667.919922"/>
       <use xlink:href="#DejaVuSans-43" x="695.703125"/>
       <use xlink:href="#DejaVuSans-6f" x="765.527344"/>
       <use xlink:href="#DejaVuSans-54" x="826.708984"/>
      </g>
      <!-- (no email) -->
      <g transform="translate(124.555075 462.775) rotate(-90) scale(0.1 -0.1)">
       <defs>
        <path id="DejaVuSans-28" d="M 1984 4856 
Q 1566 4138 1362 3434 
Q 1159 2731 1159 2009 
Q 1159 1288 1364 580 
Q 1569 -128 1984 -844 
L 1484 -844 
Q 1016 -109 783 600 
Q 550 1309 550 2009 
Q 550 2706 781 3412 
Q 1013 4119 1484 4856 
L 1984 4856 
z
" transform="scale(0.015625)"/>
        <path id="DejaVuSans-6e" d="M 3513 2113 
L 3513 0 
L 2938 0 
L 2938 2094 
Q 2938 2591 2744 2837 
Q 2550 3084 2163 3084 
Q 1697 3084 1428 2787 
Q 1159 2491 1159 1978 
L 1159 0 
L 581 0 
L 581 3500 
L 1159 3500 
L 1159 2956 
Q 1366 3272 1645 3428 
Q 1925 3584 2291 3584 
Q 2894 3584 3203 3211 
Q 3513 2838 3513 2113 
z
" transform="scale(0.015625)"/>
        <path id="DejaVuSans-65" d="M 3597 1894 
L 3597 1613 
L 953 1613 
Q 991 1019 1311 708 
Q 1631 397 2203 397 
Q 2534 397 2845 478 
Q 3156 559 3463 722 
L 3463 178 
Q 3153 47 2828 -22 
Q 2503 -91 2169 -91 
Q 1331 -91 842 396 
Q 353 884 353 1716 
Q 353 2575 817 3079 
Q 1281 3584 2069 3584 
Q 2775 3584 3186 3129 
Q 3597 2675 3597 1894 
z
M 3022 2063 
Q 3016 2534 2758 2815 
Q 2500 3097 2075 3097 
Q 1594 3097 1305 2825 
Q 1016 2553 972 2059 
L 3022 2063 
z
" transform="scale(0.015625)"/>
        <path id="DejaVuSans-6d" d="M 3328 2828 
Q 3544 3216 3844 3400 
Q 4144 3584 4550 3584 
Q 5097 3584 5394 3201 
Q 5691 2819 5691 2113 
L 5691 0 
L 5113 0 
L 5113 2094 
Q 5113 2597 4934 2840 
Q 4756 3084 4391 3084 
Q 3944 3084 3684 2787 
Q 3425 2491 3425 1978 
L 3425 0 
L 2847 0 
L 2847 2094 
Q 2847 2600 2669 2842 
Q 2491 3084 2119 3084 
Q 1678 3084 1418 2786 
Q 1159 2488 1159 1978 
L 1159 0 
L 581 0 
L 581 3500 
L 1159 3500 
L 1159 2956 
Q 1356 3278 1631 3431 
Q 1906 3584 2284 3584 
Q 2666 3584 2933 3390 
Q 3200 3197 3328 2828 
z
" transform="scale(0.015625)"/>
        <path id="DejaVuSans-61" d="M 2194 1759 
Q 1497 1759 1228 1600 
Q 959 1441 959 1056 
Q 959 750 1161 570 
Q 1363 391 1709 391 
Q 2188 391 2477 730 
Q 2766 1069 2766 1631 
L 2766 1759 
L 2194 1759 
z
M 3341 1997 
L 3341 0 
L 2766 0 
L 2766 531 
Q 2569 213 2275 61 
Q 1981 -91 1556 -91 
Q 1019 -91 701 211 
Q 384 513 384 1019 
Q 384 1609 779 1909 
Q 1175 2209 1959 2209 
L 2766 2209 
L 2766 2266 
Q 2766 2663 2505 2880 
Q 2244 3097 1772 3097 
Q 1472 3097 1187 3025 
Q 903 2953 641 2809 
L 641 3341 
Q 956 3463 1253 3523 
Q 1550 3584 1831 3584 
Q 2591 3584 2966 3190 
Q 3341 2797 3341 1997 
z
" transform="scale(0.015625)"/>
        <path id="DejaVuSans-6c" d="M 603 4863 
L 1178 4863 
L 1178 0 
L 603 0 
L 603 4863 
z
" transform="scale(0.015625)"/>
        <path id="DejaVuSans-29" d="M 513 4856 
L 1013 4856 
Q 1481 4119 1714 3412 
Q 1947 2706 1947 2009 
Q 1947 1309 1714 600 
Q 1481 -109 1013 -844 
L 513 -844 
Q 928 -128 1133 580 
Q 1338 1288 1338 2009 
Q 1338 2731 1133 3434 
Q 928 4138 513 4856 
z
" transform="scale(0.015625)"/>
       </defs>
       <use xlink:href="#DejaVuSans-28"/>
       <use xlink:href="#DejaVuSans-6e" x="39.013672"/>
       <use xlink:href="#DejaVuSans-6f" x="102.392578"/>
       <use xlink:href="#DejaVuSans-20" x="163.574219"/>
       <use xlink:href="#DejaVuSans-65" x="195.361328"/>
       <use xlink:href="#DejaVuSans-6d" x="256.884766"/>
       <use xlink:href="#DejaVuSans-61" x="354.296875"/>
       <use xlink:href="#DejaVuSans-69" x="415.576172"/>
       <use xlink:href="#DejaVuSans-6c" x="443.359375"/>
       <use xlink:href="#DejaVuSans-29" x="471.142578"/>
      </g>
     </g>
    </g>
    <g id="xtick_3">
     <g id="line2d_3">
      <g>
       <use xlink:href="#m636a2c0795" x="150.075411" y="385.878125" style="stroke: #000000; stroke-width: 0.8"/>
      </g>
     </g>
     <g id="text_3">
      <!-- 1-Shot AutoDiCoT -->
      <g transform="translate(147.23588 481.65625) rotate(-90) scale(0.1 -0.1)">
       <use xlink:href="#DejaVuSans-31"/>
       <use xlink:href="#DejaVuSans-2d" x="63.623047"/>
       <use xlink:href="#DejaVuSans-53" x="99.707031"/>
       <use xlink:href="#DejaVuSans-68" x="163.183594"/>
       <use xlink:href="#DejaVuSans-6f" x="226.5625"/>
       <use xlink:href="#DejaVuSans-74" x="287.744141"/>
       <use xlink:href="#DejaVuSans-20" x="326.953125"/>
       <use xlink:href="#DejaVuSans-41" x="358.740234"/>
       <use xlink:href="#DejaVuSans-75" x="427.148438"/>
       <use xlink:href="#DejaVuSans-74" x="490.527344"/>
       <use xlink:href="#DejaVuSans-6f" x="529.736328"/>
       <use xlink:href="#DejaVuSans-44" x="590.917969"/>
       <use xlink:href="#DejaVuSans-69" x="667.919922"/>
       <use xlink:href="#DejaVuSans-43" x="695.703125"/>
       <use xlink:href="#DejaVuSans-6f" x="765.527344"/>
       <use xlink:href="#DejaVuSans-54" x="826.708984"/>
      </g>
      <!-- + Full Context -->
      <g transform="translate(158.433693 472.771094) rotate(-90) scale(0.1 -0.1)">
       <defs>
        <path id="DejaVuSans-46" d="M 628 4666 
L 3309 4666 
L 3309 4134 
L 1259 4134 
L 1259 2759 
L 3109 2759 
L 3109 2228 
L 1259 2228 
L 1259 0 
L 628 0 
L 628 4666 
z
" transform="scale(0.015625)"/>
        <path id="DejaVuSans-78" d="M 3513 3500 
L 2247 1797 
L 3578 0 
L 2900 0 
L 1881 1375 
L 863 0 
L 184 0 
L 1544 1831 
L 300 3500 
L 978 3500 
L 1906 2253 
L 2834 3500 
L 3513 3500 
z
" transform="scale(0.015625)"/>
       </defs>
       <use xlink:href="#DejaVuSans-2b"/>
       <use xlink:href="#DejaVuSans-20" x="83.789062"/>
       <use xlink:href="#DejaVuSans-46" x="115.576172"/>
       <use xlink:href="#DejaVuSans-75" x="167.595703"/>
       <use xlink:href="#DejaVuSans-6c" x="230.974609"/>
       <use xlink:href="#DejaVuSans-6c" x="258.757812"/>
       <use xlink:href="#DejaVuSans-20" x="286.541016"/>
       <use xlink:href="#DejaVuSans-43" x="318.328125"/>
       <use xlink:href="#DejaVuSans-6f" x="388.152344"/>
       <use xlink:href="#DejaVuSans-6e" x="449.333984"/>
       <use xlink:href="#DejaVuSans-74" x="512.712891"/>
       <use xlink:href="#DejaVuSans-65" x="551.921875"/>
       <use xlink:href="#DejaVuSans-78" x="611.695312"/>
       <use xlink:href="#DejaVuSans-74" x="670.875"/>
      </g>
     </g>
    </g>
    <g id="xtick_4">
     <g id="line2d_4">
      <g>
       <use xlink:href="#m636a2c0795" x="183.954028" y="385.878125" style="stroke: #000000; stroke-width: 0.8"/>
      </g>
     </g>
     <g id="text_4">
      <!-- 10-Shot AutoDiCoT -->
      <g transform="translate(181.114497 499.45) rotate(-90) scale(0.1 -0.1)">
       <use xlink:href="#DejaVuSans-31"/>
       <use xlink:href="#DejaVuSans-30" x="63.623047"/>
       <use xlink:href="#DejaVuSans-2d" x="127.246094"/>
       <use xlink:href="#DejaVuSans-53" x="163.330078"/>
       <use xlink:href="#DejaVuSans-68" x="226.806641"/>
       <use xlink:href="#DejaVuSans-6f" x="290.185547"/>
       <use xlink:href="#DejaVuSans-74" x="351.367188"/>
       <use xlink:href="#DejaVuSans-20" x="390.576172"/>
       <use xlink:href="#DejaVuSans-41" x="422.363281"/>
       <use xlink:href="#DejaVuSans-75" x="490.771484"/>
       <use xlink:href="#DejaVuSans-74" x="554.150391"/>
       <use xlink:href="#DejaVuSans-6f" x="593.359375"/>
       <use xlink:href="#DejaVuSans-44" x="654.541016"/>
       <use xlink:href="#DejaVuSans-69" x="731.542969"/>
       <use xlink:href="#DejaVuSans-43" x="759.326172"/>
       <use xlink:href="#DejaVuSans-6f" x="829.150391"/>
       <use xlink:href="#DejaVuSans-54" x="890.332031"/>
      </g>
      <!--  Ensemble + Extraction -->
      <g transform="translate(192.31231 510.88125) rotate(-90) scale(0.1 -0.1)">
       <defs>
        <path id="DejaVuSans-45" d="M 628 4666 
L 3578 4666 
L 3578 4134 
L 1259 4134 
L 1259 2753 
L 3481 2753 
L 3481 2222 
L 1259 2222 
L 1259 531 
L 3634 531 
L 3634 0 
L 628 0 
L 628 4666 
z
" transform="scale(0.015625)"/>
        <path id="DejaVuSans-73" d="M 2834 3397 
L 2834 2853 
Q 2591 2978 2328 3040 
Q 2066 3103 1784 3103 
Q 1356 3103 1142 2972 
Q 928 2841 928 2578 
Q 928 2378 1081 2264 
Q 1234 2150 1697 2047 
L 1894 2003 
Q 2506 1872 2764 1633 
Q 3022 1394 3022 966 
Q 3022 478 2636 193 
Q 2250 -91 1575 -91 
Q 1294 -91 989 -36 
Q 684 19 347 128 
L 347 722 
Q 666 556 975 473 
Q 1284 391 1588 391 
Q 1994 391 2212 530 
Q 2431 669 2431 922 
Q 2431 1156 2273 1281 
Q 2116 1406 1581 1522 
L 1381 1569 
Q 847 1681 609 1914 
Q 372 2147 372 2553 
Q 372 3047 722 3315 
Q 1072 3584 1716 3584 
Q 2034 3584 2315 3537 
Q 2597 3491 2834 3397 
z
" transform="scale(0.015625)"/>
        <path id="DejaVuSans-62" d="M 3116 1747 
Q 3116 2381 2855 2742 
Q 2594 3103 2138 3103 
Q 1681 3103 1420 2742 
Q 1159 2381 1159 1747 
Q 1159 1113 1420 752 
Q 1681 391 2138 391 
Q 2594 391 2855 752 
Q 3116 1113 3116 1747 
z
M 1159 2969 
Q 1341 3281 1617 3432 
Q 1894 3584 2278 3584 
Q 2916 3584 3314 3078 
Q 3713 2572 3713 1747 
Q 3713 922 3314 415 
Q 2916 -91 2278 -91 
Q 1894 -91 1617 61 
Q 1341 213 1159 525 
L 1159 0 
L 581 0 
L 581 4863 
L 1159 4863 
L 1159 2969 
z
" transform="scale(0.015625)"/>
        <path id="DejaVuSans-72" d="M 2631 2963 
Q 2534 3019 2420 3045 
Q 2306 3072 2169 3072 
Q 1681 3072 1420 2755 
Q 1159 2438 1159 1844 
L 1159 0 
L 581 0 
L 581 3500 
L 1159 3500 
L 1159 2956 
Q 1341 3275 1631 3429 
Q 1922 3584 2338 3584 
Q 2397 3584 2469 3576 
Q 2541 3569 2628 3553 
L 2631 2963 
z
" transform="scale(0.015625)"/>
        <path id="DejaVuSans-63" d="M 3122 3366 
L 3122 2828 
Q 2878 2963 2633 3030 
Q 2388 3097 2138 3097 
Q 1578 3097 1268 2742 
Q 959 2388 959 1747 
Q 959 1106 1268 751 
Q 1578 397 2138 397 
Q 2388 397 2633 464 
Q 2878 531 3122 666 
L 3122 134 
Q 2881 22 2623 -34 
Q 2366 -91 2075 -91 
Q 1284 -91 818 406 
Q 353 903 353 1747 
Q 353 2603 823 3093 
Q 1294 3584 2113 3584 
Q 2378 3584 2631 3529 
Q 2884 3475 3122 3366 
z
" transform="scale(0.015625)"/>
       </defs>
       <use xlink:href="#DejaVuSans-20"/>
       <use xlink:href="#DejaVuSans-45" x="31.787109"/>
       <use xlink:href="#DejaVuSans-6e" x="94.970703"/>
       <use xlink:href="#DejaVuSans-73" x="158.349609"/>
       <use xlink:href="#DejaVuSans-65" x="210.449219"/>
       <use xlink:href="#DejaVuSans-6d" x="271.972656"/>
       <use xlink:href="#DejaVuSans-62" x="369.384766"/>
       <use xlink:href="#DejaVuSans-6c" x="432.861328"/>
       <use xlink:href="#DejaVuSans-65" x="460.644531"/>
       <use xlink:href="#DejaVuSans-20" x="522.167969"/>
       <use xlink:href="#DejaVuSans-2b" x="553.955078"/>
       <use xlink:href="#DejaVuSans-20" x="637.744141"/>
       <use xlink:href="#DejaVuSans-45" x="669.53125"/>
       <use xlink:href="#DejaVuSans-78" x="732.714844"/>
       <use xlink:href="#DejaVuSans-74" x="791.894531"/>
       <use xlink:href="#DejaVuSans-72" x="831.103516"/>
       <use xlink:href="#DejaVuSans-61" x="872.216797"/>
       <use xlink:href="#DejaVuSans-63" x="933.496094"/>
       <use xlink:href="#DejaVuSans-74" x="988.476562"/>
       <use xlink:href="#DejaVuSans-69" x="1027.685547"/>
       <use xlink:href="#DejaVuSans-6f" x="1055.46875"/>
       <use xlink:href="#DejaVuSans-6e" x="1116.650391"/>
      </g>
     </g>
    </g>
    <g id="xtick_5">
     <g id="line2d_5">
      <g>
       <use xlink:href="#m636a2c0795" x="217.832646" y="385.878125" style="stroke: #000000; stroke-width: 0.8"/>
      </g>
     </g>
     <g id="text_5">
      <!-- 10-Shot AutoDiCoT -->
      <g transform="translate(214.993114 488.01875) rotate(-90) scale(0.1 -0.1)">
       <use xlink:href="#DejaVuSans-31"/>
       <use xlink:href="#DejaVuSans-30" x="63.623047"/>
       <use xlink:href="#DejaVuSans-2d" x="127.246094"/>
       <use xlink:href="#DejaVuSans-53" x="163.330078"/>
       <use xlink:href="#DejaVuSans-68" x="226.806641"/>
       <use xlink:href="#DejaVuSans-6f" x="290.185547"/>
       <use xlink:href="#DejaVuSans-74" x="351.367188"/>
       <use xlink:href="#DejaVuSans-20" x="390.576172"/>
       <use xlink:href="#DejaVuSans-41" x="422.363281"/>
       <use xlink:href="#DejaVuSans-75" x="490.771484"/>
       <use xlink:href="#DejaVuSans-74" x="554.150391"/>
       <use xlink:href="#DejaVuSans-6f" x="593.359375"/>
       <use xlink:href="#DejaVuSans-44" x="654.541016"/>
       <use xlink:href="#DejaVuSans-69" x="731.542969"/>
       <use xlink:href="#DejaVuSans-43" x="759.326172"/>
       <use xlink:href="#DejaVuSans-6f" x="829.150391"/>
       <use xlink:href="#DejaVuSans-54" x="890.332031"/>
      </g>
      <!--  Without Email -->
      <g transform="translate(226.190927 477.035938) rotate(-90) scale(0.1 -0.1)">
       <defs>
        <path id="DejaVuSans-57" d="M 213 4666 
L 850 4666 
L 1831 722 
L 2809 4666 
L 3519 4666 
L 4500 722 
L 5478 4666 
L 6119 4666 
L 4947 0 
L 4153 0 
L 3169 4050 
L 2175 0 
L 1381 0 
L 213 4666 
z
" transform="scale(0.015625)"/>
       </defs>
       <use xlink:href="#DejaVuSans-20"/>
       <use xlink:href="#DejaVuSans-57" x="31.787109"/>
       <use xlink:href="#DejaVuSans-69" x="128.414062"/>
       <use xlink:href="#DejaVuSans-74" x="156.197266"/>
       <use xlink:href="#DejaVuSans-68" x="195.40625"/>
       <use xlink:href="#DejaVuSans-6f" x="258.785156"/>
       <use xlink:href="#DejaVuSans-75" x="319.966797"/>
       <use xlink:href="#DejaVuSans-74" x="383.345703"/>
       <use xlink:href="#DejaVuSans-20" x="422.554688"/>
       <use xlink:href="#DejaVuSans-45" x="454.341797"/>
       <use xlink:href="#DejaVuSans-6d" x="517.525391"/>
       <use xlink:href="#DejaVuSans-61" x="614.9375"/>
       <use xlink:href="#DejaVuSans-69" x="676.216797"/>
       <use xlink:href="#DejaVuSans-6c" x="704"/>
      </g>
     </g>
    </g>
    <g id="xtick_6">
     <g id="line2d_6">
      <g>
       <use xlink:href="#m636a2c0795" x="251.711263" y="385.878125" style="stroke: #000000; stroke-width: 0.8"/>
      </g>
     </g>
     <g id="text_6">
      <!-- Zero-Shot + Context -->
      <g transform="translate(248.871732 496.31875) rotate(-90) scale(0.1 -0.1)">
       <defs>
        <path id="DejaVuSans-5a" d="M 359 4666 
L 4025 4666 
L 4025 4184 
L 1075 531 
L 4097 531 
L 4097 0 
L 288 0 
L 288 481 
L 3238 4134 
L 359 4134 
L 359 4666 
z
" transform="scale(0.015625)"/>
       </defs>
       <use xlink:href="#DejaVuSans-5a"/>
       <use xlink:href="#DejaVuSans-65" x="68.505859"/>
       <use xlink:href="#DejaVuSans-72" x="130.029297"/>
       <use xlink:href="#DejaVuSans-6f" x="168.892578"/>
       <use xlink:href="#DejaVuSans-2d" x="231.949219"/>
       <use xlink:href="#DejaVuSans-53" x="268.033203"/>
       <use xlink:href="#DejaVuSans-68" x="331.509766"/>
       <use xlink:href="#DejaVuSans-6f" x="394.888672"/>
       <use xlink:href="#DejaVuSans-74" x="456.070312"/>
       <use xlink:href="#DejaVuSans-20" x="495.279297"/>
       <use xlink:href="#DejaVuSans-2b" x="527.066406"/>
       <use xlink:href="#DejaVuSans-20" x="610.855469"/>
       <use xlink:href="#DejaVuSans-43" x="642.642578"/>
       <use xlink:href="#DejaVuSans-6f" x="712.466797"/>
       <use xlink:href="#DejaVuSans-6e" x="773.648438"/>
       <use xlink:href="#DejaVuSans-74" x="837.027344"/>
       <use xlink:href="#DejaVuSans-65" x="876.236328"/>
       <use xlink:href="#DejaVuSans-78" x="936.009766"/>
       <use xlink:href="#DejaVuSans-74" x="995.189453"/>
      </g>
      <!-- (Exact Match) -->
      <g transform="translate(260.069544 479.2375) rotate(-90) scale(0.1 -0.1)">
       <defs>
        <path id="DejaVuSans-4d" d="M 628 4666 
L 1569 4666 
L 2759 1491 
L 3956 4666 
L 4897 4666 
L 4897 0 
L 4281 0 
L 4281 4097 
L 3078 897 
L 2444 897 
L 1241 4097 
L 1241 0 
L 628 0 
L 628 4666 
z
" transform="scale(0.015625)"/>
       </defs>
       <use xlink:href="#DejaVuSans-28"/>
       <use xlink:href="#DejaVuSans-45" x="39.013672"/>
       <use xlink:href="#DejaVuSans-78" x="102.197266"/>
       <use xlink:href="#DejaVuSans-61" x="161.376953"/>
       <use xlink:href="#DejaVuSans-63" x="222.65625"/>
       <use xlink:href="#DejaVuSans-74" x="277.636719"/>
       <use xlink:href="#DejaVuSans-20" x="316.845703"/>
       <use xlink:href="#DejaVuSans-4d" x="348.632812"/>
       <use xlink:href="#DejaVuSans-61" x="434.912109"/>
       <use xlink:href="#DejaVuSans-74" x="496.191406"/>
       <use xlink:href="#DejaVuSans-63" x="535.400391"/>
       <use xlink:href="#DejaVuSans-68" x="590.380859"/>
       <use xlink:href="#DejaVuSans-29" x="653.759766"/>
      </g>
     </g>
    </g>
    <g id="xtick_7">
     <g id="line2d_7">
      <g>
       <use xlink:href="#m636a2c0795" x="285.58988" y="385.878125" style="stroke: #000000; stroke-width: 0.8"/>
      </g>
     </g>
     <g id="text_7">
      <!-- Zero-Shot + Context -->
      <g transform="translate(282.750349 496.31875) rotate(-90) scale(0.1 -0.1)">
       <use xlink:href="#DejaVuSans-5a"/>
       <use xlink:href="#DejaVuSans-65" x="68.505859"/>
       <use xlink:href="#DejaVuSans-72" x="130.029297"/>
       <use xlink:href="#DejaVuSans-6f" x="168.892578"/>
       <use xlink:href="#DejaVuSans-2d" x="231.949219"/>
       <use xlink:href="#DejaVuSans-53" x="268.033203"/>
       <use xlink:href="#DejaVuSans-68" x="331.509766"/>
       <use xlink:href="#DejaVuSans-6f" x="394.888672"/>
       <use xlink:href="#DejaVuSans-74" x="456.070312"/>
       <use xlink:href="#DejaVuSans-20" x="495.279297"/>
       <use xlink:href="#DejaVuSans-2b" x="527.066406"/>
       <use xlink:href="#DejaVuSans-20" x="610.855469"/>
       <use xlink:href="#DejaVuSans-43" x="642.642578"/>
       <use xlink:href="#DejaVuSans-6f" x="712.466797"/>
       <use xlink:href="#DejaVuSans-6e" x="773.648438"/>
       <use xlink:href="#DejaVuSans-74" x="837.027344"/>
       <use xlink:href="#DejaVuSans-65" x="876.236328"/>
       <use xlink:href="#DejaVuSans-78" x="936.009766"/>
       <use xlink:href="#DejaVuSans-74" x="995.189453"/>
      </g>
      <!-- (First Chars) -->
      <g transform="translate(293.948161 474.996094) rotate(-90) scale(0.1 -0.1)">
       <use xlink:href="#DejaVuSans-28"/>
       <use xlink:href="#DejaVuSans-46" x="39.013672"/>
       <use xlink:href="#DejaVuSans-69" x="89.283203"/>
       <use xlink:href="#DejaVuSans-72" x="117.066406"/>
       <use xlink:href="#DejaVuSans-73" x="158.179688"/>
       <use xlink:href="#DejaVuSans-74" x="210.279297"/>
       <use xlink:href="#DejaVuSans-20" x="249.488281"/>
       <use xlink:href="#DejaVuSans-43" x="281.275391"/>
       <use xlink:href="#DejaVuSans-68" x="351.099609"/>
       <use xlink:href="#DejaVuSans-61" x="414.478516"/>
       <use xlink:href="#DejaVuSans-72" x="475.757812"/>
       <use xlink:href="#DejaVuSans-73" x="516.871094"/>
       <use xlink:href="#DejaVuSans-29" x="568.970703"/>
      </g>
     </g>
    </g>
    <g id="xtick_8">
     <g id="line2d_8">
      <g>
       <use xlink:href="#m636a2c0795" x="319.468497" y="385.878125" style="stroke: #000000; stroke-width: 0.8"/>
      </g>
     </g>
     <g id="text_8">
      <!-- 10-Shot AutoDiCoT -->
      <g transform="translate(316.628966 489.783594) rotate(-90) scale(0.1 -0.1)">
       <use xlink:href="#DejaVuSans-31"/>
       <use xlink:href="#DejaVuSans-30" x="63.623047"/>
       <use xlink:href="#DejaVuSans-2d" x="127.246094"/>
       <use xlink:href="#DejaVuSans-53" x="163.330078"/>
       <use xlink:href="#DejaVuSans-68" x="226.806641"/>
       <use xlink:href="#DejaVuSans-6f" x="290.185547"/>
       <use xlink:href="#DejaVuSans-74" x="351.367188"/>
       <use xlink:href="#DejaVuSans-20" x="390.576172"/>
       <use xlink:href="#DejaVuSans-41" x="422.363281"/>
       <use xlink:href="#DejaVuSans-75" x="490.771484"/>
       <use xlink:href="#DejaVuSans-74" x="554.150391"/>
       <use xlink:href="#DejaVuSans-6f" x="593.359375"/>
       <use xlink:href="#DejaVuSans-44" x="654.541016"/>
       <use xlink:href="#DejaVuSans-69" x="731.542969"/>
       <use xlink:href="#DejaVuSans-43" x="759.326172"/>
       <use xlink:href="#DejaVuSans-6f" x="829.150391"/>
       <use xlink:href="#DejaVuSans-54" x="890.332031"/>
      </g>
      <!--  + Default to Reject -->
      <g transform="translate(327.826778 491.548438) rotate(-90) scale(0.1 -0.1)">
       <defs>
        <path id="DejaVuSans-66" d="M 2375 4863 
L 2375 4384 
L 1825 4384 
Q 1516 4384 1395 4259 
Q 1275 4134 1275 3809 
L 1275 3500 
L 2222 3500 
L 2222 3053 
L 1275 3053 
L 1275 0 
L 697 0 
L 697 3053 
L 147 3053 
L 147 3500 
L 697 3500 
L 697 3744 
Q 697 4328 969 4595 
Q 1241 4863 1831 4863 
L 2375 4863 
z
" transform="scale(0.015625)"/>
        <path id="DejaVuSans-52" d="M 2841 2188 
Q 3044 2119 3236 1894 
Q 3428 1669 3622 1275 
L 4263 0 
L 3584 0 
L 2988 1197 
Q 2756 1666 2539 1819 
Q 2322 1972 1947 1972 
L 1259 1972 
L 1259 0 
L 628 0 
L 628 4666 
L 2053 4666 
Q 2853 4666 3247 4331 
Q 3641 3997 3641 3322 
Q 3641 2881 3436 2590 
Q 3231 2300 2841 2188 
z
M 1259 4147 
L 1259 2491 
L 2053 2491 
Q 2509 2491 2742 2702 
Q 2975 2913 2975 3322 
Q 2975 3731 2742 3939 
Q 2509 4147 2053 4147 
L 1259 4147 
z
" transform="scale(0.015625)"/>
        <path id="DejaVuSans-6a" d="M 603 3500 
L 1178 3500 
L 1178 -63 
Q 1178 -731 923 -1031 
Q 669 -1331 103 -1331 
L -116 -1331 
L -116 -844 
L 38 -844 
Q 366 -844 484 -692 
Q 603 -541 603 -63 
L 603 3500 
z
M 603 4863 
L 1178 4863 
L 1178 4134 
L 603 4134 
L 603 4863 
z
" transform="scale(0.015625)"/>
       </defs>
       <use xlink:href="#DejaVuSans-20"/>
       <use xlink:href="#DejaVuSans-2b" x="31.787109"/>
       <use xlink:href="#DejaVuSans-20" x="115.576172"/>
       <use xlink:href="#DejaVuSans-44" x="147.363281"/>
       <use xlink:href="#DejaVuSans-65" x="224.365234"/>
       <use xlink:href="#DejaVuSans-66" x="285.888672"/>
       <use xlink:href="#DejaVuSans-61" x="321.09375"/>
       <use xlink:href="#DejaVuSans-75" x="382.373047"/>
       <use xlink:href="#DejaVuSans-6c" x="445.751953"/>
       <use xlink:href="#DejaVuSans-74" x="473.535156"/>
       <use xlink:href="#DejaVuSans-20" x="512.744141"/>
       <use xlink:href="#DejaVuSans-74" x="544.53125"/>
       <use xlink:href="#DejaVuSans-6f" x="583.740234"/>
       <use xlink:href="#DejaVuSans-20" x="644.921875"/>
       <use xlink:href="#DejaVuSans-52" x="676.708984"/>
       <use xlink:href="#DejaVuSans-65" x="741.691406"/>
       <use xlink:href="#DejaVuSans-6a" x="803.214844"/>
       <use xlink:href="#DejaVuSans-65" x="830.998047"/>
       <use xlink:href="#DejaVuSans-63" x="892.521484"/>
       <use xlink:href="#DejaVuSans-74" x="947.501953"/>
      </g>
     </g>
    </g>
    <g id="xtick_9">
     <g id="line2d_9">
      <g>
       <use xlink:href="#m636a2c0795" x="353.347114" y="385.878125" style="stroke: #000000; stroke-width: 0.8"/>
      </g>
     </g>
     <g id="text_9">
      <!-- Full Context Only -->
      <g transform="translate(356.106489 478.4125) rotate(-90) scale(0.1 -0.1)">
       <defs>
        <path id="DejaVuSans-4f" d="M 2522 4238 
Q 1834 4238 1429 3725 
Q 1025 3213 1025 2328 
Q 1025 1447 1429 934 
Q 1834 422 2522 422 
Q 3209 422 3611 934 
Q 4013 1447 4013 2328 
Q 4013 3213 3611 3725 
Q 3209 4238 2522 4238 
z
M 2522 4750 
Q 3503 4750 4090 4092 
Q 4678 3434 4678 2328 
Q 4678 1225 4090 567 
Q 3503 -91 2522 -91 
Q 1538 -91 948 565 
Q 359 1222 359 2328 
Q 359 3434 948 4092 
Q 1538 4750 2522 4750 
z
" transform="scale(0.015625)"/>
        <path id="DejaVuSans-79" d="M 2059 -325 
Q 1816 -950 1584 -1140 
Q 1353 -1331 966 -1331 
L 506 -1331 
L 506 -850 
L 844 -850 
Q 1081 -850 1212 -737 
Q 1344 -625 1503 -206 
L 1606 56 
L 191 3500 
L 800 3500 
L 1894 763 
L 2988 3500 
L 3597 3500 
L 2059 -325 
z
" transform="scale(0.015625)"/>
       </defs>
       <use xlink:href="#DejaVuSans-46"/>
       <use xlink:href="#DejaVuSans-75" x="52.019531"/>
       <use xlink:href="#DejaVuSans-6c" x="115.398438"/>
       <use xlink:href="#DejaVuSans-6c" x="143.181641"/>
       <use xlink:href="#DejaVuSans-20" x="170.964844"/>
       <use xlink:href="#DejaVuSans-43" x="202.751953"/>
       <use xlink:href="#DejaVuSans-6f" x="272.576172"/>
       <use xlink:href="#DejaVuSans-6e" x="333.757812"/>
       <use xlink:href="#DejaVuSans-74" x="397.136719"/>
       <use xlink:href="#DejaVuSans-65" x="436.345703"/>
       <use xlink:href="#DejaVuSans-78" x="496.119141"/>
       <use xlink:href="#DejaVuSans-74" x="555.298828"/>
       <use xlink:href="#DejaVuSans-20" x="594.507812"/>
       <use xlink:href="#DejaVuSans-4f" x="626.294922"/>
       <use xlink:href="#DejaVuSans-6e" x="705.005859"/>
       <use xlink:href="#DejaVuSans-6c" x="768.384766"/>
       <use xlink:href="#DejaVuSans-79" x="796.167969"/>
      </g>
     </g>
    </g>
    <g id="xtick_10">
     <g id="line2d_10">
      <g>
       <use xlink:href="#m636a2c0795" x="387.225731" y="385.878125" style="stroke: #000000; stroke-width: 0.8"/>
      </g>
     </g>
     <g id="text_10">
      <!-- Anonymized Email -->
      <g transform="translate(389.985106 485.621875) rotate(-90) scale(0.1 -0.1)">
       <defs>
        <path id="DejaVuSans-7a" d="M 353 3500 
L 3084 3500 
L 3084 2975 
L 922 459 
L 3084 459 
L 3084 0 
L 275 0 
L 275 525 
L 2438 3041 
L 353 3041 
L 353 3500 
z
" transform="scale(0.015625)"/>
        <path id="DejaVuSans-64" d="M 2906 2969 
L 2906 4863 
L 3481 4863 
L 3481 0 
L 2906 0 
L 2906 525 
Q 2725 213 2448 61 
Q 2172 -91 1784 -91 
Q 1150 -91 751 415 
Q 353 922 353 1747 
Q 353 2572 751 3078 
Q 1150 3584 1784 3584 
Q 2172 3584 2448 3432 
Q 2725 3281 2906 2969 
z
M 947 1747 
Q 947 1113 1208 752 
Q 1469 391 1925 391 
Q 2381 391 2643 752 
Q 2906 1113 2906 1747 
Q 2906 2381 2643 2742 
Q 2381 3103 1925 3103 
Q 1469 3103 1208 2742 
Q 947 2381 947 1747 
z
" transform="scale(0.015625)"/>
       </defs>
       <use xlink:href="#DejaVuSans-41"/>
       <use xlink:href="#DejaVuSans-6e" x="68.408203"/>
       <use xlink:href="#DejaVuSans-6f" x="131.787109"/>
       <use xlink:href="#DejaVuSans-6e" x="192.96875"/>
       <use xlink:href="#DejaVuSans-79" x="256.347656"/>
       <use xlink:href="#DejaVuSans-6d" x="315.527344"/>
       <use xlink:href="#DejaVuSans-69" x="412.939453"/>
       <use xlink:href="#DejaVuSans-7a" x="440.722656"/>
       <use xlink:href="#DejaVuSans-65" x="493.212891"/>
       <use xlink:href="#DejaVuSans-64" x="554.736328"/>
       <use xlink:href="#DejaVuSans-20" x="618.212891"/>
       <use xlink:href="#DejaVuSans-45" x="650"/>
       <use xlink:href="#DejaVuSans-6d" x="713.183594"/>
       <use xlink:href="#DejaVuSans-61" x="810.595703"/>
       <use xlink:href="#DejaVuSans-69" x="871.875"/>
       <use xlink:href="#DejaVuSans-6c" x="899.658203"/>
      </g>
     </g>
    </g>
    <g id="xtick_11">
     <g id="line2d_11">
      <g>
       <use xlink:href="#m636a2c0795" x="421.104349" y="385.878125" style="stroke: #000000; stroke-width: 0.8"/>
      </g>
     </g>
     <g id="text_11">
      <!-- 10-Shot + Context -->
      <g transform="translate(423.863724 485.848438) rotate(-90) scale(0.1 -0.1)">
       <use xlink:href="#DejaVuSans-31"/>
       <use xlink:href="#DejaVuSans-30" x="63.623047"/>
       <use xlink:href="#DejaVuSans-2d" x="127.246094"/>
       <use xlink:href="#DejaVuSans-53" x="163.330078"/>
       <use xlink:href="#DejaVuSans-68" x="226.806641"/>
       <use xlink:href="#DejaVuSans-6f" x="290.185547"/>
       <use xlink:href="#DejaVuSans-74" x="351.367188"/>
       <use xlink:href="#DejaVuSans-20" x="390.576172"/>
       <use xlink:href="#DejaVuSans-2b" x="422.363281"/>
       <use xlink:href="#DejaVuSans-20" x="506.152344"/>
       <use xlink:href="#DejaVuSans-43" x="537.939453"/>
       <use xlink:href="#DejaVuSans-6f" x="607.763672"/>
       <use xlink:href="#DejaVuSans-6e" x="668.945312"/>
       <use xlink:href="#DejaVuSans-74" x="732.324219"/>
       <use xlink:href="#DejaVuSans-65" x="771.533203"/>
       <use xlink:href="#DejaVuSans-78" x="831.306641"/>
       <use xlink:href="#DejaVuSans-74" x="890.486328"/>
      </g>
     </g>
    </g>
    <g id="xtick_12">
     <g id="line2d_12">
      <g>
       <use xlink:href="#m636a2c0795" x="454.982966" y="385.878125" style="stroke: #000000; stroke-width: 0.8"/>
      </g>
     </g>
     <g id="text_12">
      <!-- 10-Shot AutoDiCoT -->
      <g transform="translate(452.143434 488.01875) rotate(-90) scale(0.1 -0.1)">
       <use xlink:href="#DejaVuSans-31"/>
       <use xlink:href="#DejaVuSans-30" x="63.623047"/>
       <use xlink:href="#DejaVuSans-2d" x="127.246094"/>
       <use xlink:href="#DejaVuSans-53" x="163.330078"/>
       <use xlink:href="#DejaVuSans-68" x="226.806641"/>
       <use xlink:href="#DejaVuSans-6f" x="290.185547"/>
       <use xlink:href="#DejaVuSans-74" x="351.367188"/>
       <use xlink:href="#DejaVuSans-20" x="390.576172"/>
       <use xlink:href="#DejaVuSans-41" x="422.363281"/>
       <use xlink:href="#DejaVuSans-75" x="490.771484"/>
       <use xlink:href="#DejaVuSans-74" x="554.150391"/>
       <use xlink:href="#DejaVuSans-6f" x="593.359375"/>
       <use xlink:href="#DejaVuSans-44" x="654.541016"/>
       <use xlink:href="#DejaVuSans-69" x="731.542969"/>
       <use xlink:href="#DejaVuSans-43" x="759.326172"/>
       <use xlink:href="#DejaVuSans-6f" x="829.150391"/>
       <use xlink:href="#DejaVuSans-54" x="890.332031"/>
      </g>
      <!--  De-Dupe Email -->
      <g transform="translate(463.341247 479.498438) rotate(-90) scale(0.1 -0.1)">
       <defs>
        <path id="DejaVuSans-70" d="M 1159 525 
L 1159 -1331 
L 581 -1331 
L 581 3500 
L 1159 3500 
L 1159 2969 
Q 1341 3281 1617 3432 
Q 1894 3584 2278 3584 
Q 2916 3584 3314 3078 
Q 3713 2572 3713 1747 
Q 3713 922 3314 415 
Q 2916 -91 2278 -91 
Q 1894 -91 1617 61 
Q 1341 213 1159 525 
z
M 3116 1747 
Q 3116 2381 2855 2742 
Q 2594 3103 2138 3103 
Q 1681 3103 1420 2742 
Q 1159 2381 1159 1747 
Q 1159 1113 1420 752 
Q 1681 391 2138 391 
Q 2594 391 2855 752 
Q 3116 1113 3116 1747 
z
" transform="scale(0.015625)"/>
       </defs>
       <use xlink:href="#DejaVuSans-20"/>
       <use xlink:href="#DejaVuSans-44" x="31.787109"/>
       <use xlink:href="#DejaVuSans-65" x="108.789062"/>
       <use xlink:href="#DejaVuSans-2d" x="170.3125"/>
       <use xlink:href="#DejaVuSans-44" x="206.396484"/>
       <use xlink:href="#DejaVuSans-75" x="283.398438"/>
       <use xlink:href="#DejaVuSans-70" x="346.777344"/>
       <use xlink:href="#DejaVuSans-65" x="410.253906"/>
       <use xlink:href="#DejaVuSans-20" x="471.777344"/>
       <use xlink:href="#DejaVuSans-45" x="503.564453"/>
       <use xlink:href="#DejaVuSans-6d" x="566.748047"/>
       <use xlink:href="#DejaVuSans-61" x="664.160156"/>
       <use xlink:href="#DejaVuSans-69" x="725.439453"/>
       <use xlink:href="#DejaVuSans-6c" x="753.222656"/>
      </g>
     </g>
    </g>
    <g id="xtick_13">
     <g id="line2d_13">
      <g>
       <use xlink:href="#m636a2c0795" x="488.861583" y="385.878125" style="stroke: #000000; stroke-width: 0.8"/>
      </g>
     </g>
     <g id="text_13">
      <!-- Triplicate Context -->
      <g transform="translate(491.620958 480.359375) rotate(-90) scale(0.1 -0.1)">
       <use xlink:href="#DejaVuSans-54"/>
       <use xlink:href="#DejaVuSans-72" x="46.333984"/>
       <use xlink:href="#DejaVuSans-69" x="87.447266"/>
       <use xlink:href="#DejaVuSans-70" x="115.230469"/>
       <use xlink:href="#DejaVuSans-6c" x="178.707031"/>
       <use xlink:href="#DejaVuSans-69" x="206.490234"/>
       <use xlink:href="#DejaVuSans-63" x="234.273438"/>
       <use xlink:href="#DejaVuSans-61" x="289.253906"/>
       <use xlink:href="#DejaVuSans-74" x="350.533203"/>
       <use xlink:href="#DejaVuSans-65" x="389.742188"/>
       <use xlink:href="#DejaVuSans-20" x="451.265625"/>
       <use xlink:href="#DejaVuSans-43" x="483.052734"/>
       <use xlink:href="#DejaVuSans-6f" x="552.876953"/>
       <use xlink:href="#DejaVuSans-6e" x="614.058594"/>
       <use xlink:href="#DejaVuSans-74" x="677.4375"/>
       <use xlink:href="#DejaVuSans-65" x="716.646484"/>
       <use xlink:href="#DejaVuSans-78" x="776.419922"/>
       <use xlink:href="#DejaVuSans-74" x="835.599609"/>
      </g>
     </g>
    </g>
    <g id="xtick_14">
     <g id="line2d_14">
      <g>
       <use xlink:href="#m636a2c0795" x="522.7402" y="385.878125" style="stroke: #000000; stroke-width: 0.8"/>
      </g>
     </g>
     <g id="text_14">
      <!-- 20-Shot AutoDiCoT -->
      <g transform="translate(519.900669 488.01875) rotate(-90) scale(0.1 -0.1)">
       <defs>
        <path id="DejaVuSans-32" d="M 1228 531 
L 3431 531 
L 3431 0 
L 469 0 
L 469 531 
Q 828 903 1448 1529 
Q 2069 2156 2228 2338 
Q 2531 2678 2651 2914 
Q 2772 3150 2772 3378 
Q 2772 3750 2511 3984 
Q 2250 4219 1831 4219 
Q 1534 4219 1204 4116 
Q 875 4013 500 3803 
L 500 4441 
Q 881 4594 1212 4672 
Q 1544 4750 1819 4750 
Q 2544 4750 2975 4387 
Q 3406 4025 3406 3419 
Q 3406 3131 3298 2873 
Q 3191 2616 2906 2266 
Q 2828 2175 2409 1742 
Q 1991 1309 1228 531 
z
" transform="scale(0.015625)"/>
       </defs>
       <use xlink:href="#DejaVuSans-32"/>
       <use xlink:href="#DejaVuSans-30" x="63.623047"/>
       <use xlink:href="#DejaVuSans-2d" x="127.246094"/>
       <use xlink:href="#DejaVuSans-53" x="163.330078"/>
       <use xlink:href="#DejaVuSans-68" x="226.806641"/>
       <use xlink:href="#DejaVuSans-6f" x="290.185547"/>
       <use xlink:href="#DejaVuSans-74" x="351.367188"/>
       <use xlink:href="#DejaVuSans-20" x="390.576172"/>
       <use xlink:href="#DejaVuSans-41" x="422.363281"/>
       <use xlink:href="#DejaVuSans-75" x="490.771484"/>
       <use xlink:href="#DejaVuSans-74" x="554.150391"/>
       <use xlink:href="#DejaVuSans-6f" x="593.359375"/>
       <use xlink:href="#DejaVuSans-44" x="654.541016"/>
       <use xlink:href="#DejaVuSans-69" x="731.542969"/>
       <use xlink:href="#DejaVuSans-43" x="759.326172"/>
       <use xlink:href="#DejaVuSans-6f" x="829.150391"/>
       <use xlink:href="#DejaVuSans-54" x="890.332031"/>
      </g>
      <!-- + Full Words -->
      <g transform="translate(531.098481 471.820312) rotate(-90) scale(0.1 -0.1)">
       <use xlink:href="#DejaVuSans-2b"/>
       <use xlink:href="#DejaVuSans-20" x="83.789062"/>
       <use xlink:href="#DejaVuSans-46" x="115.576172"/>
       <use xlink:href="#DejaVuSans-75" x="167.595703"/>
       <use xlink:href="#DejaVuSans-6c" x="230.974609"/>
       <use xlink:href="#DejaVuSans-6c" x="258.757812"/>
       <use xlink:href="#DejaVuSans-20" x="286.541016"/>
       <use xlink:href="#DejaVuSans-57" x="318.328125"/>
       <use xlink:href="#DejaVuSans-6f" x="411.330078"/>
       <use xlink:href="#DejaVuSans-72" x="472.511719"/>
       <use xlink:href="#DejaVuSans-64" x="511.875"/>
       <use xlink:href="#DejaVuSans-73" x="575.351562"/>
      </g>
     </g>
    </g>
    <g id="xtick_15">
     <g id="line2d_15">
      <g>
       <use xlink:href="#m636a2c0795" x="556.618817" y="385.878125" style="stroke: #000000; stroke-width: 0.8"/>
      </g>
     </g>
     <g id="text_15">
      <!-- 20-Shot AutoDiCoT -->
      <g transform="translate(553.779286 524.236719) rotate(-90) scale(0.1 -0.1)">
       <use xlink:href="#DejaVuSans-32"/>
       <use xlink:href="#DejaVuSans-30" x="63.623047"/>
       <use xlink:href="#DejaVuSans-2d" x="127.246094"/>
       <use xlink:href="#DejaVuSans-53" x="163.330078"/>
       <use xlink:href="#DejaVuSans-68" x="226.806641"/>
       <use xlink:href="#DejaVuSans-6f" x="290.185547"/>
       <use xlink:href="#DejaVuSans-74" x="351.367188"/>
       <use xlink:href="#DejaVuSans-20" x="390.576172"/>
       <use xlink:href="#DejaVuSans-41" x="422.363281"/>
       <use xlink:href="#DejaVuSans-75" x="490.771484"/>
       <use xlink:href="#DejaVuSans-74" x="554.150391"/>
       <use xlink:href="#DejaVuSans-6f" x="593.359375"/>
       <use xlink:href="#DejaVuSans-44" x="654.541016"/>
       <use xlink:href="#DejaVuSans-69" x="731.542969"/>
       <use xlink:href="#DejaVuSans-43" x="759.326172"/>
       <use xlink:href="#DejaVuSans-6f" x="829.150391"/>
       <use xlink:href="#DejaVuSans-54" x="890.332031"/>
      </g>
      <!-- + Full Words + Extraction Prompt -->
      <g transform="translate(564.977098 560.454688) rotate(-90) scale(0.1 -0.1)">
       <defs>
        <path id="DejaVuSans-50" d="M 1259 4147 
L 1259 2394 
L 2053 2394 
Q 2494 2394 2734 2622 
Q 2975 2850 2975 3272 
Q 2975 3691 2734 3919 
Q 2494 4147 2053 4147 
L 1259 4147 
z
M 628 4666 
L 2053 4666 
Q 2838 4666 3239 4311 
Q 3641 3956 3641 3272 
Q 3641 2581 3239 2228 
Q 2838 1875 2053 1875 
L 1259 1875 
L 1259 0 
L 628 0 
L 628 4666 
z
" transform="scale(0.015625)"/>
       </defs>
       <use xlink:href="#DejaVuSans-2b"/>
       <use xlink:href="#DejaVuSans-20" x="83.789062"/>
       <use xlink:href="#DejaVuSans-46" x="115.576172"/>
       <use xlink:href="#DejaVuSans-75" x="167.595703"/>
       <use xlink:href="#DejaVuSans-6c" x="230.974609"/>
       <use xlink:href="#DejaVuSans-6c" x="258.757812"/>
       <use xlink:href="#DejaVuSans-20" x="286.541016"/>
       <use xlink:href="#DejaVuSans-57" x="318.328125"/>
       <use xlink:href="#DejaVuSans-6f" x="411.330078"/>
       <use xlink:href="#DejaVuSans-72" x="472.511719"/>
       <use xlink:href="#DejaVuSans-64" x="511.875"/>
       <use xlink:href="#DejaVuSans-73" x="575.351562"/>
       <use xlink:href="#DejaVuSans-20" x="627.451172"/>
       <use xlink:href="#DejaVuSans-2b" x="659.238281"/>
       <use xlink:href="#DejaVuSans-20" x="743.027344"/>
       <use xlink:href="#DejaVuSans-45" x="774.814453"/>
       <use xlink:href="#DejaVuSans-78" x="837.998047"/>
       <use xlink:href="#DejaVuSans-74" x="897.177734"/>
       <use xlink:href="#DejaVuSans-72" x="936.386719"/>
       <use xlink:href="#DejaVuSans-61" x="977.5"/>
       <use xlink:href="#DejaVuSans-63" x="1038.779297"/>
       <use xlink:href="#DejaVuSans-74" x="1093.759766"/>
       <use xlink:href="#DejaVuSans-69" x="1132.96875"/>
       <use xlink:href="#DejaVuSans-6f" x="1160.751953"/>
       <use xlink:href="#DejaVuSans-6e" x="1221.933594"/>
       <use xlink:href="#DejaVuSans-20" x="1285.3125"/>
       <use xlink:href="#DejaVuSans-50" x="1317.099609"/>
       <use xlink:href="#DejaVuSans-72" x="1375.652344"/>
       <use xlink:href="#DejaVuSans-6f" x="1414.515625"/>
       <use xlink:href="#DejaVuSans-6d" x="1475.697266"/>
       <use xlink:href="#DejaVuSans-70" x="1573.109375"/>
       <use xlink:href="#DejaVuSans-74" x="1636.585938"/>
      </g>
     </g>
    </g>
    <g id="xtick_16">
     <g id="line2d_16">
      <g>
       <use xlink:href="#m636a2c0795" x="590.497434" y="385.878125" style="stroke: #000000; stroke-width: 0.8"/>
      </g>
     </g>
     <g id="text_16">
      <!-- 10-Shot AutoDiCoT -->
      <g transform="translate(587.657903 491.275781) rotate(-90) scale(0.1 -0.1)">
       <use xlink:href="#DejaVuSans-31"/>
       <use xlink:href="#DejaVuSans-30" x="63.623047"/>
       <use xlink:href="#DejaVuSans-2d" x="127.246094"/>
       <use xlink:href="#DejaVuSans-53" x="163.330078"/>
       <use xlink:href="#DejaVuSans-68" x="226.806641"/>
       <use xlink:href="#DejaVuSans-6f" x="290.185547"/>
       <use xlink:href="#DejaVuSans-74" x="351.367188"/>
       <use xlink:href="#DejaVuSans-20" x="390.576172"/>
       <use xlink:href="#DejaVuSans-41" x="422.363281"/>
       <use xlink:href="#DejaVuSans-75" x="490.771484"/>
       <use xlink:href="#DejaVuSans-74" x="554.150391"/>
       <use xlink:href="#DejaVuSans-6f" x="593.359375"/>
       <use xlink:href="#DejaVuSans-44" x="654.541016"/>
       <use xlink:href="#DejaVuSans-69" x="731.542969"/>
       <use xlink:href="#DejaVuSans-43" x="759.326172"/>
       <use xlink:href="#DejaVuSans-6f" x="829.150391"/>
       <use xlink:href="#DejaVuSans-54" x="890.332031"/>
      </g>
      <!-- + Extraction Prompt -->
      <g transform="translate(598.855716 494.532813) rotate(-90) scale(0.1 -0.1)">
       <use xlink:href="#DejaVuSans-2b"/>
       <use xlink:href="#DejaVuSans-20" x="83.789062"/>
       <use xlink:href="#DejaVuSans-45" x="115.576172"/>
       <use xlink:href="#DejaVuSans-78" x="178.759766"/>
       <use xlink:href="#DejaVuSans-74" x="237.939453"/>
       <use xlink:href="#DejaVuSans-72" x="277.148438"/>
       <use xlink:href="#DejaVuSans-61" x="318.261719"/>
       <use xlink:href="#DejaVuSans-63" x="379.541016"/>
       <use xlink:href="#DejaVuSans-74" x="434.521484"/>
       <use xlink:href="#DejaVuSans-69" x="473.730469"/>
       <use xlink:href="#DejaVuSans-6f" x="501.513672"/>
       <use xlink:href="#DejaVuSans-6e" x="562.695312"/>
       <use xlink:href="#DejaVuSans-20" x="626.074219"/>
       <use xlink:href="#DejaVuSans-50" x="657.861328"/>
       <use xlink:href="#DejaVuSans-72" x="716.414062"/>
       <use xlink:href="#DejaVuSans-6f" x="755.277344"/>
       <use xlink:href="#DejaVuSans-6d" x="816.458984"/>
       <use xlink:href="#DejaVuSans-70" x="913.871094"/>
       <use xlink:href="#DejaVuSans-74" x="977.347656"/>
      </g>
     </g>
    </g>
    <g id="xtick_17">
     <g id="line2d_17">
      <g>
       <use xlink:href="#m636a2c0795" x="624.376052" y="385.878125" style="stroke: #000000; stroke-width: 0.8"/>
      </g>
     </g>
     <g id="text_17">
      <!-- 20-Shot AutoDiCoT -->
      <g transform="translate(627.135427 488.01875) rotate(-90) scale(0.1 -0.1)">
       <use xlink:href="#DejaVuSans-32"/>
       <use xlink:href="#DejaVuSans-30" x="63.623047"/>
       <use xlink:href="#DejaVuSans-2d" x="127.246094"/>
       <use xlink:href="#DejaVuSans-53" x="163.330078"/>
       <use xlink:href="#DejaVuSans-68" x="226.806641"/>
       <use xlink:href="#DejaVuSans-6f" x="290.185547"/>
       <use xlink:href="#DejaVuSans-74" x="351.367188"/>
       <use xlink:href="#DejaVuSans-20" x="390.576172"/>
       <use xlink:href="#DejaVuSans-41" x="422.363281"/>
       <use xlink:href="#DejaVuSans-75" x="490.771484"/>
       <use xlink:href="#DejaVuSans-74" x="554.150391"/>
       <use xlink:href="#DejaVuSans-6f" x="593.359375"/>
       <use xlink:href="#DejaVuSans-44" x="654.541016"/>
       <use xlink:href="#DejaVuSans-69" x="731.542969"/>
       <use xlink:href="#DejaVuSans-43" x="759.326172"/>
       <use xlink:href="#DejaVuSans-6f" x="829.150391"/>
       <use xlink:href="#DejaVuSans-54" x="890.332031"/>
      </g>
     </g>
    </g>
    <g id="xtick_18">
     <g id="line2d_18">
      <g>
       <use xlink:href="#m636a2c0795" x="658.254669" y="385.878125" style="stroke: #000000; stroke-width: 0.8"/>
      </g>
     </g>
     <g id="text_18">
      <!-- 10-Shot AutoDiCoT -->
      <g transform="translate(661.014044 488.01875) rotate(-90) scale(0.1 -0.1)">
       <use xlink:href="#DejaVuSans-31"/>
       <use xlink:href="#DejaVuSans-30" x="63.623047"/>
       <use xlink:href="#DejaVuSans-2d" x="127.246094"/>
       <use xlink:href="#DejaVuSans-53" x="163.330078"/>
       <use xlink:href="#DejaVuSans-68" x="226.806641"/>
       <use xlink:href="#DejaVuSans-6f" x="290.185547"/>
       <use xlink:href="#DejaVuSans-74" x="351.367188"/>
       <use xlink:href="#DejaVuSans-20" x="390.576172"/>
       <use xlink:href="#DejaVuSans-41" x="422.363281"/>
       <use xlink:href="#DejaVuSans-75" x="490.771484"/>
       <use xlink:href="#DejaVuSans-74" x="554.150391"/>
       <use xlink:href="#DejaVuSans-6f" x="593.359375"/>
       <use xlink:href="#DejaVuSans-44" x="654.541016"/>
       <use xlink:href="#DejaVuSans-69" x="731.542969"/>
       <use xlink:href="#DejaVuSans-43" x="759.326172"/>
       <use xlink:href="#DejaVuSans-6f" x="829.150391"/>
       <use xlink:href="#DejaVuSans-54" x="890.332031"/>
      </g>
     </g>
    </g>
   </g>
   <g id="matplotlib.axis_2">
    <g id="ytick_1">
     <g id="line2d_19">
      <defs>
       <path id="m305eae6aff" d="M 0 0 
L -3.5 0 
" style="stroke: #000000; stroke-width: 0.8"/>
      </defs>
      <g>
       <use xlink:href="#m305eae6aff" x="43.78125" y="385.878125" style="stroke: #000000; stroke-width: 0.8"/>
      </g>
     </g>
     <g id="text_19">
      <!-- 0.0 -->
      <g transform="translate(20.878125 389.677344) scale(0.1 -0.1)">
       <defs>
        <path id="DejaVuSans-2e" d="M 684 794 
L 1344 794 
L 1344 0 
L 684 0 
L 684 794 
z
" transform="scale(0.015625)"/>
       </defs>
       <use xlink:href="#DejaVuSans-30"/>
       <use xlink:href="#DejaVuSans-2e" x="63.623047"/>
       <use xlink:href="#DejaVuSans-30" x="95.410156"/>
      </g>
     </g>
    </g>
    <g id="ytick_2">
     <g id="line2d_20">
      <g>
       <use xlink:href="#m305eae6aff" x="43.78125" y="316.628601" style="stroke: #000000; stroke-width: 0.8"/>
      </g>
     </g>
     <g id="text_20">
      <!-- 0.2 -->
      <g transform="translate(20.878125 320.42782) scale(0.1 -0.1)">
       <use xlink:href="#DejaVuSans-30"/>
       <use xlink:href="#DejaVuSans-2e" x="63.623047"/>
       <use xlink:href="#DejaVuSans-32" x="95.410156"/>
      </g>
     </g>
    </g>
    <g id="ytick_3">
     <g id="line2d_21">
      <g>
       <use xlink:href="#m305eae6aff" x="43.78125" y="247.379077" style="stroke: #000000; stroke-width: 0.8"/>
      </g>
     </g>
     <g id="text_21">
      <!-- 0.4 -->
      <g transform="translate(20.878125 251.178296) scale(0.1 -0.1)">
       <defs>
        <path id="DejaVuSans-34" d="M 2419 4116 
L 825 1625 
L 2419 1625 
L 2419 4116 
z
M 2253 4666 
L 3047 4666 
L 3047 1625 
L 3713 1625 
L 3713 1100 
L 3047 1100 
L 3047 0 
L 2419 0 
L 2419 1100 
L 313 1100 
L 313 1709 
L 2253 4666 
z
" transform="scale(0.015625)"/>
       </defs>
       <use xlink:href="#DejaVuSans-30"/>
       <use xlink:href="#DejaVuSans-2e" x="63.623047"/>
       <use xlink:href="#DejaVuSans-34" x="95.410156"/>
      </g>
     </g>
    </g>
    <g id="ytick_4">
     <g id="line2d_22">
      <g>
       <use xlink:href="#m305eae6aff" x="43.78125" y="178.129554" style="stroke: #000000; stroke-width: 0.8"/>
      </g>
     </g>
     <g id="text_22">
      <!-- 0.6 -->
      <g transform="translate(20.878125 181.928772) scale(0.1 -0.1)">
       <defs>
        <path id="DejaVuSans-36" d="M 2113 2584 
Q 1688 2584 1439 2293 
Q 1191 2003 1191 1497 
Q 1191 994 1439 701 
Q 1688 409 2113 409 
Q 2538 409 2786 701 
Q 3034 994 3034 1497 
Q 3034 2003 2786 2293 
Q 2538 2584 2113 2584 
z
M 3366 4563 
L 3366 3988 
Q 3128 4100 2886 4159 
Q 2644 4219 2406 4219 
Q 1781 4219 1451 3797 
Q 1122 3375 1075 2522 
Q 1259 2794 1537 2939 
Q 1816 3084 2150 3084 
Q 2853 3084 3261 2657 
Q 3669 2231 3669 1497 
Q 3669 778 3244 343 
Q 2819 -91 2113 -91 
Q 1303 -91 875 529 
Q 447 1150 447 2328 
Q 447 3434 972 4092 
Q 1497 4750 2381 4750 
Q 2619 4750 2861 4703 
Q 3103 4656 3366 4563 
z
" transform="scale(0.015625)"/>
       </defs>
       <use xlink:href="#DejaVuSans-30"/>
       <use xlink:href="#DejaVuSans-2e" x="63.623047"/>
       <use xlink:href="#DejaVuSans-36" x="95.410156"/>
      </g>
     </g>
    </g>
    <g id="ytick_5">
     <g id="line2d_23">
      <g>
       <use xlink:href="#m305eae6aff" x="43.78125" y="108.88003" style="stroke: #000000; stroke-width: 0.8"/>
      </g>
     </g>
     <g id="text_23">
      <!-- 0.8 -->
      <g transform="translate(20.878125 112.679249) scale(0.1 -0.1)">
       <defs>
        <path id="DejaVuSans-38" d="M 2034 2216 
Q 1584 2216 1326 1975 
Q 1069 1734 1069 1313 
Q 1069 891 1326 650 
Q 1584 409 2034 409 
Q 2484 409 2743 651 
Q 3003 894 3003 1313 
Q 3003 1734 2745 1975 
Q 2488 2216 2034 2216 
z
M 1403 2484 
Q 997 2584 770 2862 
Q 544 3141 544 3541 
Q 544 4100 942 4425 
Q 1341 4750 2034 4750 
Q 2731 4750 3128 4425 
Q 3525 4100 3525 3541 
Q 3525 3141 3298 2862 
Q 3072 2584 2669 2484 
Q 3125 2378 3379 2068 
Q 3634 1759 3634 1313 
Q 3634 634 3220 271 
Q 2806 -91 2034 -91 
Q 1263 -91 848 271 
Q 434 634 434 1313 
Q 434 1759 690 2068 
Q 947 2378 1403 2484 
z
M 1172 3481 
Q 1172 3119 1398 2916 
Q 1625 2713 2034 2713 
Q 2441 2713 2670 2916 
Q 2900 3119 2900 3481 
Q 2900 3844 2670 4047 
Q 2441 4250 2034 4250 
Q 1625 4250 1398 4047 
Q 1172 3844 1172 3481 
z
" transform="scale(0.015625)"/>
       </defs>
       <use xlink:href="#DejaVuSans-30"/>
       <use xlink:href="#DejaVuSans-2e" x="63.623047"/>
       <use xlink:href="#DejaVuSans-38" x="95.410156"/>
      </g>
     </g>
    </g>
    <g id="ytick_6">
     <g id="line2d_24">
      <g>
       <use xlink:href="#m305eae6aff" x="43.78125" y="39.630506" style="stroke: #000000; stroke-width: 0.8"/>
      </g>
     </g>
     <g id="text_24">
      <!-- 1.0 -->
      <g transform="translate(20.878125 43.429725) scale(0.1 -0.1)">
       <use xlink:href="#DejaVuSans-31"/>
       <use xlink:href="#DejaVuSans-2e" x="63.623047"/>
       <use xlink:href="#DejaVuSans-30" x="95.410156"/>
      </g>
     </g>
    </g>
    <g id="text_25">
     <!-- Scores -->
     <g transform="translate(14.798438 220.705156) rotate(-90) scale(0.1 -0.1)">
      <use xlink:href="#DejaVuSans-53"/>
      <use xlink:href="#DejaVuSans-63" x="63.476562"/>
      <use xlink:href="#DejaVuSans-6f" x="118.457031"/>
      <use xlink:href="#DejaVuSans-72" x="179.638672"/>
      <use xlink:href="#DejaVuSans-65" x="218.501953"/>
      <use xlink:href="#DejaVuSans-73" x="280.025391"/>
     </g>
    </g>
   </g>
   <g id="patch_57">
    <path d="M 43.78125 385.878125 
L 43.78125 22.318125 
" style="fill: none; stroke: #000000; stroke-width: 0.8; stroke-linejoin: miter; stroke-linecap: square"/>
   </g>
   <g id="patch_58">
    <path d="M 705.26125 385.878125 
L 705.26125 22.318125 
" style="fill: none; stroke: #000000; stroke-width: 0.8; stroke-linejoin: miter; stroke-linecap: square"/>
   </g>
   <g id="patch_59">
    <path d="M 43.78125 385.878125 
L 705.26125 385.878125 
" style="fill: none; stroke: #000000; stroke-width: 0.8; stroke-linejoin: miter; stroke-linecap: square"/>
   </g>
   <g id="patch_60">
    <path d="M 43.78125 22.318125 
L 705.26125 22.318125 
" style="fill: none; stroke: #000000; stroke-width: 0.8; stroke-linejoin: miter; stroke-linecap: square"/>
   </g>
   <g id="text_26">
    <!-- Scores of Different Prompting Techniques on Development Set -->
    <g transform="translate(187.22375 16.318125) scale(0.12 -0.12)">
     <defs>
      <path id="DejaVuSans-67" d="M 2906 1791 
Q 2906 2416 2648 2759 
Q 2391 3103 1925 3103 
Q 1463 3103 1205 2759 
Q 947 2416 947 1791 
Q 947 1169 1205 825 
Q 1463 481 1925 481 
Q 2391 481 2648 825 
Q 2906 1169 2906 1791 
z
M 3481 434 
Q 3481 -459 3084 -895 
Q 2688 -1331 1869 -1331 
Q 1566 -1331 1297 -1286 
Q 1028 -1241 775 -1147 
L 775 -588 
Q 1028 -725 1275 -790 
Q 1522 -856 1778 -856 
Q 2344 -856 2625 -561 
Q 2906 -266 2906 331 
L 2906 616 
Q 2728 306 2450 153 
Q 2172 0 1784 0 
Q 1141 0 747 490 
Q 353 981 353 1791 
Q 353 2603 747 3093 
Q 1141 3584 1784 3584 
Q 2172 3584 2450 3431 
Q 2728 3278 2906 2969 
L 2906 3500 
L 3481 3500 
L 3481 434 
z
" transform="scale(0.015625)"/>
      <path id="DejaVuSans-71" d="M 947 1747 
Q 947 1113 1208 752 
Q 1469 391 1925 391 
Q 2381 391 2643 752 
Q 2906 1113 2906 1747 
Q 2906 2381 2643 2742 
Q 2381 3103 1925 3103 
Q 1469 3103 1208 2742 
Q 947 2381 947 1747 
z
M 2906 525 
Q 2725 213 2448 61 
Q 2172 -91 1784 -91 
Q 1150 -91 751 415 
Q 353 922 353 1747 
Q 353 2572 751 3078 
Q 1150 3584 1784 3584 
Q 2172 3584 2448 3432 
Q 2725 3281 2906 2969 
L 2906 3500 
L 3481 3500 
L 3481 -1331 
L 2906 -1331 
L 2906 525 
z
" transform="scale(0.015625)"/>
      <path id="DejaVuSans-76" d="M 191 3500 
L 800 3500 
L 1894 563 
L 2988 3500 
L 3597 3500 
L 2284 0 
L 1503 0 
L 191 3500 
z
" transform="scale(0.015625)"/>
     </defs>
     <use xlink:href="#DejaVuSans-53"/>
     <use xlink:href="#DejaVuSans-63" x="63.476562"/>
     <use xlink:href="#DejaVuSans-6f" x="118.457031"/>
     <use xlink:href="#DejaVuSans-72" x="179.638672"/>
     <use xlink:href="#DejaVuSans-65" x="218.501953"/>
     <use xlink:href="#DejaVuSans-73" x="280.025391"/>
     <use xlink:href="#DejaVuSans-20" x="332.125"/>
     <use xlink:href="#DejaVuSans-6f" x="363.912109"/>
     <use xlink:href="#DejaVuSans-66" x="425.09375"/>
     <use xlink:href="#DejaVuSans-20" x="460.298828"/>
     <use xlink:href="#DejaVuSans-44" x="492.085938"/>
     <use xlink:href="#DejaVuSans-69" x="569.087891"/>
     <use xlink:href="#DejaVuSans-66" x="596.871094"/>
     <use xlink:href="#DejaVuSans-66" x="632.076172"/>
     <use xlink:href="#DejaVuSans-65" x="667.28125"/>
     <use xlink:href="#DejaVuSans-72" x="728.804688"/>
     <use xlink:href="#DejaVuSans-65" x="767.667969"/>
     <use xlink:href="#DejaVuSans-6e" x="829.191406"/>
     <use xlink:href="#DejaVuSans-74" x="892.570312"/>
     <use xlink:href="#DejaVuSans-20" x="931.779297"/>
     <use xlink:href="#DejaVuSans-50" x="963.566406"/>
     <use xlink:href="#DejaVuSans-72" x="1022.119141"/>
     <use xlink:href="#DejaVuSans-6f" x="1060.982422"/>
     <use xlink:href="#DejaVuSans-6d" x="1122.164062"/>
     <use xlink:href="#DejaVuSans-70" x="1219.576172"/>
     <use xlink:href="#DejaVuSans-74" x="1283.052734"/>
     <use xlink:href="#DejaVuSans-69" x="1322.261719"/>
     <use xlink:href="#DejaVuSans-6e" x="1350.044922"/>
     <use xlink:href="#DejaVuSans-67" x="1413.423828"/>
     <use xlink:href="#DejaVuSans-20" x="1476.900391"/>
     <use xlink:href="#DejaVuSans-54" x="1508.6875"/>
     <use xlink:href="#DejaVuSans-65" x="1552.771484"/>
     <use xlink:href="#DejaVuSans-63" x="1614.294922"/>
     <use xlink:href="#DejaVuSans-68" x="1669.275391"/>
     <use xlink:href="#DejaVuSans-6e" x="1732.654297"/>
     <use xlink:href="#DejaVuSans-69" x="1796.033203"/>
     <use xlink:href="#DejaVuSans-71" x="1823.816406"/>
     <use xlink:href="#DejaVuSans-75" x="1887.292969"/>
     <use xlink:href="#DejaVuSans-65" x="1950.671875"/>
     <use xlink:href="#DejaVuSans-73" x="2012.195312"/>
     <use xlink:href="#DejaVuSans-20" x="2064.294922"/>
     <use xlink:href="#DejaVuSans-6f" x="2096.082031"/>
     <use xlink:href="#DejaVuSans-6e" x="2157.263672"/>
     <use xlink:href="#DejaVuSans-20" x="2220.642578"/>
     <use xlink:href="#DejaVuSans-44" x="2252.429688"/>
     <use xlink:href="#DejaVuSans-65" x="2329.431641"/>
     <use xlink:href="#DejaVuSans-76" x="2390.955078"/>
     <use xlink:href="#DejaVuSans-65" x="2450.134766"/>
     <use xlink:href="#DejaVuSans-6c" x="2511.658203"/>
     <use xlink:href="#DejaVuSans-6f" x="2539.441406"/>
     <use xlink:href="#DejaVuSans-70" x="2600.623047"/>
     <use xlink:href="#DejaVuSans-6d" x="2664.099609"/>
     <use xlink:href="#DejaVuSans-65" x="2761.511719"/>
     <use xlink:href="#DejaVuSans-6e" x="2823.035156"/>
     <use xlink:href="#DejaVuSans-74" x="2886.414062"/>
     <use xlink:href="#DejaVuSans-20" x="2925.623047"/>
     <use xlink:href="#DejaVuSans-53" x="2957.410156"/>
     <use xlink:href="#DejaVuSans-65" x="3020.886719"/>
     <use xlink:href="#DejaVuSans-74" x="3082.410156"/>
    </g>
   </g>
   <g id="legend_1">
    <g id="patch_61">
     <path d="M 50.78125 74.3525 
L 127.395313 74.3525 
Q 129.395313 74.3525 129.395313 72.3525 
L 129.395313 29.318125 
Q 129.395313 27.318125 127.395313 27.318125 
L 50.78125 27.318125 
Q 48.78125 27.318125 48.78125 29.318125 
L 48.78125 72.3525 
Q 48.78125 74.3525 50.78125 74.3525 
z
" style="fill: #ffffff; opacity: 0.8; stroke: #cccccc; stroke-linejoin: miter"/>
    </g>
    <g id="patch_62">
     <path d="M 52.78125 38.916563 
L 72.78125 38.916563 
L 72.78125 31.916563 
L 52.78125 31.916563 
z
" style="fill: #00072d"/>
    </g>
    <g id="text_27">
     <!-- F1 -->
     <g transform="translate(80.78125 38.916563) scale(0.1 -0.1)">
      <use xlink:href="#DejaVuSans-46"/>
      <use xlink:href="#DejaVuSans-31" x="57.519531"/>
     </g>
    </g>
    <g id="patch_63">
     <path d="M 52.78125 53.594688 
L 72.78125 53.594688 
L 72.78125 46.594688 
L 52.78125 46.594688 
z
" style="fill: #21897e"/>
    </g>
    <g id="text_28">
     <!-- Recall -->
     <g transform="translate(80.78125 53.594688) scale(0.1 -0.1)">
      <use xlink:href="#DejaVuSans-52"/>
      <use xlink:href="#DejaVuSans-65" x="64.982422"/>
      <use xlink:href="#DejaVuSans-63" x="126.505859"/>
      <use xlink:href="#DejaVuSans-61" x="181.486328"/>
      <use xlink:href="#DejaVuSans-6c" x="242.765625"/>
      <use xlink:href="#DejaVuSans-6c" x="270.548828"/>
     </g>
    </g>
    <g id="patch_64">
     <path d="M 52.78125 68.272813 
L 72.78125 68.272813 
L 72.78125 61.272813 
L 52.78125 61.272813 
z
" style="fill: #02b98d"/>
    </g>
    <g id="text_29">
     <!-- Precision -->
     <g transform="translate(80.78125 68.272813) scale(0.1 -0.1)">
      <use xlink:href="#DejaVuSans-50"/>
      <use xlink:href="#DejaVuSans-72" x="58.552734"/>
      <use xlink:href="#DejaVuSans-65" x="97.416016"/>
      <use xlink:href="#DejaVuSans-63" x="158.939453"/>
      <use xlink:href="#DejaVuSans-69" x="213.919922"/>
      <use xlink:href="#DejaVuSans-73" x="241.703125"/>
      <use xlink:href="#DejaVuSans-69" x="293.802734"/>
      <use xlink:href="#DejaVuSans-6f" x="321.585938"/>
      <use xlink:href="#DejaVuSans-6e" x="382.767578"/>
     </g>
    </g>
   </g>
  </g>
 </g>
 <defs>
  <clipPath id="p61db7f356f">
   <rect x="43.78125" y="22.318125" width="661.48" height="363.56"/>
  </clipPath>
 </defs>
</svg>
